<?xml version="1.0" standalone="no"?>
<!DOCTYPE svg PUBLIC "-//W3C//DTD SVG 1.1//EN" "http://www.w3.org/Graphics/SVG/1.1/DTD/svg11.dtd">
<svg xmlns="http://www.w3.org/2000/svg">
<metadata>Copyright (C) 2015 by original authors @ fontello.com</metadata>
<defs>
<font id="fontello" horiz-adv-x="1000" >
<font-face font-family="fontello" font-weight="400" font-stretch="normal" units-per-em="1000" ascent="850" descent="-150" />
<missing-glyph horiz-adv-x="1000" />
<glyph glyph-name="glyph" unicode="&#xe800;" d="m938 66l-272 129c36 18 178 24 189 56 0 0-56 86-69 198-6 43-15 100-24 180-14 130-124 221-262 221 0 0 0 0 0 0 0 0 0 0 0 0-138 0-247-91-262-221-9-80-18-137-24-180-13-112-69-198-69-198 12-32 153-38 190-56l-272-129c0 0-63-22-63-74l0-82c0-35 28-60 63-60l875 0c34 0 62 25 62 60l0 82c0 52-62 74-62 74z m-875-154l0 80c0 4 11 12 21 15 2 1 3 2 5 3l272 129c22 10 36 32 36 56 0 23-13 45-34 56-22 11-50 16-94 24-10 1-24 4-38 7 18 40 38 96 46 159 1 16 4 34 7 54 4 33 10 76 16 127 11 97 93 166 200 166 0 0 0 0 0 0 0 0 0 0 0 0 107 0 189-69 200-166 6-51 12-94 16-127 3-20 6-38 8-54 7-63 27-119 45-159-14-3-28-6-38-7-44-8-72-13-93-24-22-11-35-33-35-57 0-23 14-45 36-55l272-129c2-1 3-2 5-3 10-3 20-11 22-15l0-80-875 0z" horiz-adv-x="1000" />
<glyph glyph-name="glyph-1" unicode="&#xe801;" d="m63-24c0 25 18 33 26 36l274 130c20 9 33 28 36 49 3 22-6 43-23 56-65 53-95 167-95 228l0 156c0 66 114 156 219 156 106 0 219-89 219-156l0-156c0-60-25-175-93-228-17-13-25-35-23-56 3-22 16-41 36-50l94-44 15 62-83 39c87 68 116 202 116 277l0 156c0 104-143 219-281 219-138 0-282-115-282-219l0-156c0-68 32-206 119-276l-274-130c0 0-63-28-63-62l0-94c0-35 28-63 63-63l687 0 0 63-687 0 0 63z m906 62l-94 0 0 93c0 18-14 32-31 32s-32-14-32-32l0-93-93 0c-18 0-32-14-32-32 0-17 14-31 32-31l93 0 0-94c0-17 14-31 32-31s31 14 31 31l0 94 94 0c17 0 31 14 31 31 0 18-14 32-31 32z" horiz-adv-x="1000" />
<glyph glyph-name="glyph-2" unicode="&#xe802;" d="m781 475l-31 0 0 119c0 144-104 256-251 256-148 0-249-115-249-256l0-119-31 0c-69 0-125-56-125-125l0-375c0-69 56-125 125-125l562 0c69 0 125 56 125 125l0 375c0 69-56 125-125 125z m-468 119c0 107 72 194 186 194 112 0 189-85 189-194l0-119-375 0 0 119z m531-619c0-35-28-63-63-63l-562 0c-35 0-63 28-63 63l0 375c0 35 28 63 63 63l562 0c35 0 63-28 63-63l0-375z m-344 313c-34 0-62-28-62-63 0-23 12-43 31-54l0-102c0-17 14-31 31-31s31 14 31 31l0 102c19 11 32 31 32 54 0 35-28 63-63 63z" horiz-adv-x="1000" />
<glyph glyph-name="glyph-3" unicode="&#xe803;" d="m62-87l0 63c0 25 19 33 26 36l275 130c19 9 33 27 36 49 2 21-7 43-23 56-65 52-96 167-96 228l0 156c0 65 114 156 219 156 106 0 219-89 219-156l0-156c0-60-25-175-92-228-17-13-26-35-23-56 2-22 16-41 36-50l158-75 37 53-169 79c86 68 115 202 115 277l0 156c0 104-143 219-281 219-138 0-281-115-281-219l0-156c0-68 31-206 118-276l-274-130c0 0-63-28-63-62l0-94c0-35 29-63 63-63l625 0-51 63-574 0z m927 231c-14 10-34 8-44-6l-134-204-83 83c-12 13-32 13-44 0s-12-32 0-44l110-110c12-13 32-13 44 0 3 3 6 6 7 10l149 227c11 13 8 33-5 44z" horiz-adv-x="1000" />
<glyph glyph-name="glyph-4" unicode="&#xe804;" d="m780 475l0 156c0 104-143 219-281 219-138 0-281-115-281-219l0-156c0-68 31-206 118-276l-274-130c0 0-63-28-63-62l0-94c0-35 29-63 63-63l594 0 0 63-594 0 0 63c0 25 19 33 26 36l275 130c19 9 33 28 35 49 3 22-6 43-22 56-65 53-96 167-96 228l0 156c0 66 114 157 219 157 106 0 219-90 219-157l0-156c0-60-25-175-92-228-17-13-26-34-23-56 2-22 16-40 36-50l17-8 28 51-19 14c86 68 115 202 115 277z m123-483l88 88c13 12 13 32 0 44-12 13-32 13-44 0l-88-88-89 88c-12 13-32 13-44 0-12-12-12-32 0-44l89-88-89-89c-12-12-12-32 0-44 12-12 32-12 44 0l89 89 88-89c12-12 32-12 44 0 13 12 13 32 0 44l-88 89z" horiz-adv-x="1000" />
<glyph glyph-name="glyph-5" unicode="&#xe805;" d="m719-56l-440 0c-17 0-31-14-31-31s14-32 31-32l440 0c17 0 31 14 31 32s-14 31-31 31z m275 787c-3 15-16 25-31 25l-153 0 0 31c0 18-14 32-31 32l-562 0c-18 0-32-14-32-32l0-31-148 0c-15 0-27-10-30-25-1-4-22-114 39-188 35-43 88-66 158-68 40-118 141-206 262-219l0-217-93 0c-18 0-32-14-32-32s14-31 32-31l252 0c18 0 31 14 31 31s-13 32-31 32l-96 0 0 217c121 13 222 101 262 219 73 1 128 24 164 68 60 74 39 184 39 188z m-900-149c-27 34-30 83-29 112l120 0 0-106c0-17 2-33 4-49-42 4-74 18-95 43z m653 6c0-149-112-271-249-271-138 0-250 122-250 271l0 168 499 0 0-168z m159-6c-21-26-55-41-100-44 2 17 4 33 4 50l0 106 125 0c1-29-1-78-29-112z" horiz-adv-x="1000" />
<glyph glyph-name="glyph-6" unicode="&#xe806;" d="m938 600l-875 0c-35 0-63-28-63-62l0-626c0-34 28-62 63-62l875 0c34 0 62 28 62 62l0 626c0 34-28 62-62 62z m-583-439l145-99 144 100 249-250-786 0 248 249z m-292-204l0 403 239-163-239-240z m634 241l241 165 0-406-241 241z m241 340l0-102-2 2-436-300-437 297 0 103 875 0z" horiz-adv-x="1000" />
<glyph glyph-name="glyph-7" unicode="&#xe807;" d="m912 786l0 0c11 0 18-2 22-4 4-12 10-54-34-99l-206-205-20-20 2-28c3-59 10-164 15-254 5-80 10-155 10-162 0-4 0-5-4-10-9-12-26-31-41-46-22 60-70 188-96 260l-33 92-70-69-127-123-18-18-1-25c0-20 0-56 0-87 0-22 0-42 0-54 0 0 4-1 4-1-3 4-6 9-9 14-25 41-61 97-72 115l-8 13-13 8c-47 29-100 62-132 82 1 1 2-2 3-2l2 0c10 0 27 0 45-1 25 0 53 0 74 0 8 0 15 0 21 0l25 0 18 18 122 127 70 69-92 34c-69 25-201 74-263 98 16 14 35 32 46 41 3 2 6 4 7 4l3 0c7-1 92-6 175-12 88-5 187-12 243-16l28-1 20 20 206 205c32 32 63 37 78 37m0 62c-36 0-82-14-122-54l-206-206c-116 7-412 27-420 27-1 0-3 0-5 0-10 0-27-2-47-18-23-19-71-64-71-64-12-12-17-27-16-40 1-8 5-23 25-31 13-5 207-78 297-111l-122-127c-6 0-13 0-20 0-38 0-96 1-119 1-3 0-6 0-7 0-7 0-22 4-61-29l-2-2c-12-12-15-23-15-31 0-8 2-19 13-28 7-6 95-62 167-106 17-28 96-154 101-161 6-10 15-16 27-16 1 0 1 0 1 0 12 0 24 6 35 17 33 38 28 54 28 61 1 20 0 109 1 144l127 123c33-90 104-283 109-295 8-20 23-25 31-25 1 0 3-1 4-1 13 0 25 6 36 17 0 0 45 48 64 71 19 23 19 43 18 53 0 6-18 301-25 417l206 205c73 73 61 161 34 188-12 12-36 21-66 21l0 0z" horiz-adv-x="1000" />
<glyph glyph-name="glyph-8" unicode="&#xe808;" d="m829 850l-623 0c-45 0-64-33-64-64l0-125-34 0c-17 0-31-13-31-30s14-31 31-31l34 0 0-126-31 0c-17 0-31-13-31-30s14-31 31-31l31 0 0-126-32 0c-17 0-31-14-31-31s14-31 31-31l32 0 0-125-32 0c-17 0-31-14-31-31s14-30 31-30l32 0 0-127c0-51 40-62 63-62l624 0c52 0 94 42 94 94l0 812c0 52-42 94-94 94z m-625-938l0 127 33 0c17 0 30 14 30 30s-13 31-30 31l-33 0 0 125 33 0c17 0 30 14 30 31s-13 31-30 31l-33 0 0 126 34 0c16 0 30 14 30 31s-14 30-30 30l-34 0 0 126 31 0c16 0 30 14 30 31s-14 30-30 30l-31 0 0 125c0 0 0 1 0 1 1 1 2 1 2 1l498 0 0-876-500 0z m657 32c0-18-14-32-32-32l-62 0 0 876 62 0c18 0 32-14 32-32l0-812z" horiz-adv-x="1000" />
<glyph glyph-name="glyph-9" unicode="&#xe809;" d="m502 850c-155 0-283-125-283-280l0-440c0-155 128-280 283-280s279 125 279 280l0 440c0 155-125 280-279 280z m217-720c0-120-98-218-217-218s-221 98-221 218l0 440c0 120 101 218 221 218s217-98 217-218l0-440z m-219 533c-17 0-31-14-31-32l0-156c0-17 14-31 31-31 18 0 32 14 32 31l0 156c0 18-14 32-32 32z" horiz-adv-x="1000" />
<glyph glyph-name="glyph-10" unicode="&#xe80a;" d="m763 257c-16 7-34 0-41-16-1-1-65-141-224-142-1 0-2 0-3 0-150 0-215 137-218 143-7 15-25 22-41 15-16-7-23-26-16-41 4-8 84-180 275-180 1 0 2 0 3 0 199 2 278 173 281 180 7 16 0 34-16 41z m-263 593c-276 0-500-224-500-500s224-500 500-500 500 224 500 500-224 500-500 500z m0-938c-241 0-437 197-437 438s196 438 437 438 438-197 438-438-197-438-438-438z m-157 469c35 0 63 28 63 63s-28 62-63 62c-34 0-62-28-62-62s28-63 62-63z m313 0c34 0 62 28 62 63s-28 62-62 62c-35 0-63-28-63-62s28-63 63-63z" horiz-adv-x="1000" />
<glyph glyph-name="glyph-11" unicode="&#xe80b;" d="m993 365l-9 8c0 0 0 0 0 0l-127 116c-9 9-24 9-33 0l-5-8c-9-9-6-23 3-31l74-68-362 0 0 364 67-74c9-9 23-12 32-3l8 5c9 9 9 24 0 33l-111 121c-2 6-6 10-12 13l-1 2c-4 4-10 6-16 6-6 0-11-2-16-6l-8-9c0 0 0 0 0 0l-113-125c-9-9-9-24 0-33l8-5c9-9 23-6 32 3l67 75 0-367-367 0 74 68c10 8 12 22 3 31l-5 8c-9 9-24 9-33 0l-121-111c-6-2-10-6-13-12l-2-1c-4-4-6-10-6-16 0-6 2-11 6-16l9-8c0 0 0 0 0 0l125-113c9-8 24-8 33 0l5 8c10 9 7 23-3 32l-75 67 370 0 0-368-67 75c-9 10-23 13-32 3l-8-5c-8-9-8-24 0-33l113-125c0 0 0 0 0 0l8-9c5-4 10-6 16-6 6 0 12 2 16 6l8 9c0 0 0 0 0 0l116 127c9 9 9 24 0 33l-8 5c-9 9-23 7-32-3l-67-74 0 365 365 0-75-67c-9-9-12-23-3-32l5-8c9-8 24-8 33 0l125 113c0 0 0 0 0 0l9 8c4 5 6 10 6 16 0 6-2 12-6 16z" horiz-adv-x="1000" />
<glyph glyph-name="glyph-12" unicode="&#xe80c;" d="m969 69l-125 0 0 580 116 116c13 12 13 32 0 44-12 13-32 13-44 0l-116-115-581 0 0 125c0 17-14 31-31 31s-32-14-32-31l0-125-125 0c-17 0-31-14-31-31 0-18 14-32 31-32l125 0 0-593c0-3 1-6 2-9 0-1 0-2 1-3 3-8 9-14 17-17 1-1 3-1 4-1 3-1 5-2 8-2l593 0 0-125c0-17 14-31 32-31s31 14 31 31l0 125 125 0c17 0 31 14 31 32s-14 31-31 31z m-231 562l-519-518 0 518 519 0z m-475-562l518 517 0-517-518 0z" horiz-adv-x="1000" />
<glyph glyph-name="glyph-13" unicode="&#xe80d;" d="m500 788c106 0 218-90 218-157l0-156c0-60-25-175-92-228-17-13-26-34-23-56 3-22 16-40 36-50l272-128c2-1 26-5 26-39l0-61-874 0 0 63c0 25 18 33 26 37l274 129c20 9 33 28 36 49 3 22-6 43-23 57-65 52-95 166-95 227l0 156c0 66 114 157 219 157m0 62c-138 0-282-115-282-219l0-156c0-68 32-206 119-276l-274-130c0 0-63-28-63-62l0-94c0-35 28-63 63-63l874 0c35 0 63 28 63 63l0 94c0 37-63 62-63 62l-272 129c87 68 116 202 116 277l0 156c0 104-143 219-281 219l0 0z" horiz-adv-x="1000" />
<glyph glyph-name="glyph-14" unicode="&#xe80e;" d="m500 815c-275 0-499-224-499-500 0-173 87-331 234-423 15-9 34-5 43 10s5 34-10 43c-53 33-97 76-130 126l33 19c15 8 20 28 11 43-9 15-28 20-43 11l-32-19c-24 49-39 103-43 160l35 0c17 0 31 14 31 31s-14 31-31 31l-35 0c5 57 20 112 44 161l31-18c5-3 11-4 16-4 11 0 21 5 27 15 9 15 4 34-11 43l-31 18c31 46 71 85 117 116l17-30c6-10 17-16 27-16 6 0 11 1 16 4 15 9 20 28 11 43l-17 30c48 23 101 38 157 42l0-39c0-17 14-31 31-31s32 14 32 31l0 39c57-4 111-19 160-43l-17-29c-8-15-3-34 12-43 5-3 10-4 15-4 11 0 22 6 27 16l17 29c46-31 85-71 116-116l-29-17c-15-9-20-28-11-43 5-10 16-15 27-15 5 0 10 1 15 4l30 17c24-49 39-104 43-161l-35 0c-17 0-31-14-31-31s14-31 31-31l35 0c-4-56-18-109-42-158l-31 18c-15 9-34 3-42-11-9-15-4-35 11-43l31-18c-34-51-80-95-134-129-15-9-19-28-10-43 6-9 16-15 26-15 6 0 12 2 17 5 149 92 237 251 237 425 0 276-224 500-499 500z m231-402c15 8 20 28 11 43-9 14-28 20-43 11l-169-98c-9 5-20 8-31 8-34 0-62-28-62-62 0-35 28-62 62-62 35 0 62 27 62 62 0 0 0 0 0 0l170 98z" horiz-adv-x="1000" />
<glyph glyph-name="glyph-15" unicode="&#xe80f;" d="m919 665c-27 19-103 45-419 45-339 0-390-30-406-39-86-52-94-280-95-327 2-61 11-264 95-315 16-10 66-39 406-39 316 0 392 26 419 45 73 53 81 234 82 310-1 61-7 266-82 320z m-37-579c-11-8-73-34-382-34-299 0-362 24-374 31-30 18-61 114-64 261 2 148 35 255 65 273 11 7 74 31 373 31 309 0 371-26 382-34 27-19 56-121 56-269 0-151-29-240-56-259z m-178 289l-282 172c-9 6-21 6-31 1-10-6-16-16-16-28l0-345c0-11 6-21 16-27 5-3 10-4 15-4 6 0 11 2 16 4l282 173c9 6 15 16 15 27s-6 21-15 27z m-266-144l0 234 189-117-189-117z" horiz-adv-x="1000" />
<glyph glyph-name="glyph-16" unicode="&#xe810;" d="m668 695c52 0 99-21 132-55 40 8 79 22 114 42-14-40-42-74-79-96 36 4 71 14 103 27-24-34-55-65-90-90 0-7 1-15 1-22 0-230-181-496-511-496-102 0-196 29-276 78 14-1 29-2 43-2 84 0 162 28 223 75-78 1-145 51-168 120 11-2 23-3 34-3 17 0 32 2 48 6-83 16-145 87-145 171 0 1 0 2 0 3 25-14 52-21 82-22-48 31-80 84-80 145 0 32 9 62 24 87 89-105 221-175 370-182-3 13-4 26-4 40 0 96 80 174 179 174m270-82l0 0m-270 145c-122 0-224-90-240-206-100 20-191 73-257 151-12 15-29 23-48 23-1 0-3 0-5-1-20-1-38-12-48-30-22-36-34-77-34-119 0-29 5-56 15-82-10-11-16-26-16-42l0-2c0-61 24-118 64-160-2-11-1-22 2-33 14-42 39-79 72-106-22-5-45-8-68-8-12 0-24 1-35 2-3 1-5 1-8 1-26 0-50-17-59-42-9-28 1-58 26-74 93-57 199-88 309-88 355 0 569 279 573 551 29 24 55 52 77 83 8 10 12 23 12 37 0 22-10 40-27 52 8 24 0 50-20 66-11 9-25 14-39 14-11 0-22-3-32-9-20-12-42-21-66-28-42 32-94 50-148 50l0 0z" horiz-adv-x="1000" />
<glyph glyph-name="glyph-17" unicode="&#xe811;" d="m516 788l0-219 219 0 0-94-218 0-1-272c0-50 3-83 8-97 9-23 39-52 95-52 44 0 103 13 147 46l0-145c-37-18-71-25-101-32-30-7-62-11-97-11-38 0-150 1-196 118-8 21-12 51-12 91l0 354-126 0 1 96c41 0 166 25 166 217l115 0m0 62l-115 0c-34 0-62-28-62-62 0-143-80-154-104-154-35 0-63-28-63-63l0-95c0-17 6-33 18-45 12-12 28-18 44-18l64 0 0-292c0-48 5-85 16-114 28-72 95-157 254-157 40 0 77 4 111 12l7 2c29 6 67 15 107 34 22 10 35 32 35 56l0 146c0 24-13 46-34 56-9 5-19 7-28 7-13 0-27-4-38-13-37-27-84-33-109-33-25 0-34 9-36 11-1 5-4 23-4 75l0 210 156 0c34 0 62 28 62 62l0 94c0 35-28 63-62 63l-157 0 0 156c0 34-28 62-62 62l0 0z" horiz-adv-x="1000" />
<glyph glyph-name="glyph-18" unicode="&#xe812;" d="m568 771c4 0 6 0 6 0l82 0-1-93-81 0c-44 0-43-39-43-39l0-148 157 0-22-94-136 0 0-468-94 0 0 468-124 0 0 94 124 0c0 0 0 114 0 146 0 127 106 134 132 134m88 0l0 0m-88 63l0 0c-22 0-66-4-108-29-39-24-86-72-86-168l0-84-62 0c-17 0-33-6-45-18-11-12-18-28-18-44l0-94c1-34 29-62 63-62l62 0 0-406c0-35 28-63 62-63l94 0c35 0 63 28 63 63l0 406 73 0c28 0 53 18 60 45l22 93c6 19 2 40-10 55-11 16-30 25-50 25l-95 0 0 62 62 0c35 0 63 28 63 62l0 91c0 1 0 2 0 3 0 35-28 63-62 63l0 0-80 0c-2 0-5 0-8 0l0 0z" horiz-adv-x="1000" />
<glyph glyph-name="glyph-19" unicode="&#xe813;" d="m999 631c0 10-6 19-14 24l-279 174c-11 7-25 6-36-3l-170-137-170 137c-10 9-25 10-36 3l-279-174c-8-5-14-14-14-24-1-10 3-20 11-27l161-135-138-109c-8-6-13-15-12-25 0-10 5-20 14-25l128-86c-7-5-11-13-11-23l0-125c0-11 6-21 15-27l315-178c5-3 10-4 16-4s11 1 16 4l311 178c9 6 15 16 15 27l0 147c0 2 0 4-1 6l122 81c8 5 13 14 13 24 1 10-4 20-11 26l-138 109 161 135c8 7 12 17 11 27z m-280-162l-219-138-219 138 219 142 219-142z m-634 156l223 139 139-113-222-144-140 118z m140-195l220-138-125-96-213 142 118 92z m-8-240l87-58c11-8 26-7 36 1l127 96 0-276-250 141 0 96z m563-96l-251-143 0 281 130-99c5-5 12-7 19-7 6 0 12 2 17 6l85 56 0-94z m112 244l-213-142-124 96 220 138 117-92z m-117 169l-222 144 139 113 223-139-140-118z" horiz-adv-x="1000" />
<glyph glyph-name="glyph-20" unicode="&#xe814;" d="m500 850c-68 0-133-14-193-39-2-1-4-1-6-2-177-77-301-254-301-459 0-276 225-500 500-500 276 0 500 225 500 500 0 276-224 500-500 500z m437-500c0-3 0-7 0-10-48 12-169 36-319 3-13 30-28 61-44 93-2 3-3 5-4 8 160 61 228 145 256 197 69-78 111-179 111-291z m-158 337c-15-35-68-124-239-188-77 141-137 225-171 268 42 13 86 20 131 20 106 0 203-38 279-100z m-470 56c26-32 88-114 171-264-196-59-354-52-409-47 26 137 116 252 238 311z m-246-393c0 7 0 13 0 20 19-2 48-4 87-4 84 0 212 11 360 57 3-5 5-11 8-16 14-27 27-54 39-80-27-9-54-19-82-31-179-81-262-196-292-247-74 79-120 185-120 301z m168-344c15 30 88 151 270 233 27 12 54 22 80 30 59-151 80-275 86-323-51-21-108-33-167-33-102 0-195 35-269 93z m495-30c-9 60-31 173-84 308 145 29 260 1 289-8-22-127-98-235-205-300z" horiz-adv-x="1000" />
<glyph glyph-name="glyph-21" unicode="&#xe815;" d="m887 709c-12 11-27 17-43 17-1 0-3 0-4 0-1 0-11-1-27-1-26 0-77 2-125 14-62 15-134 86-155 100-10 7-22 10-34 10-12 0-25-3-35-10-3-2-78-82-151-100-48-12-100-14-126-14-16 0-26 1-27 1-1 0-3 0-4 0-16 0-31-6-43-17-12-12-20-28-20-46l0-156c0-578 379-652 395-655 3-1 7-1 11-1s7 0 11 1c16 3 397 77 397 655l0 156c0 18-8 34-20 46z m-43-202c0-532-345-594-345-594s-343 62-343 594c0 136 0 156 0 156s12-1 31-1c33 0 88 3 141 16 86 21 171 109 171 109s88-88 174-109c53-13 107-16 140-16 19 0 31 1 31 1s0-20 0-156z m-212 5c-12 12-32 12-44 0l-88-88-88 88c-13 12-32 12-45 0s-12-32 0-44l89-89-89-88c-12-12-12-32 0-44s32-12 45 0l88 88 88-88c12-12 32-12 44 0s13 32 0 44l-88 88 88 89c13 12 13 32 0 44z" horiz-adv-x="1000" />
<glyph glyph-name="glyph-22" unicode="&#xe816;" d="m997 431l-101 150 50 174c3 11 0 23-8 31-8 8-20 11-31 8l-174-51-151 102c-9 6-21 7-31 2-10-6-17-16-17-27l-6-182-143-112c-9-7-13-18-11-29s9-21 20-25l134-48c-1-1-2-1-3-2l-518-519c-12-12-12-32 0-44 6-6 14-9 22-9s16 3 22 9l519 519c2 2 3 4 5 6l52-144c4-11 13-18 25-20 1 0 3 0 4 0 10 0 19 4 25 12l111 143 180 7c11 0 22 7 27 17 5 10 4 22-2 32z m-222 6c-9 0-17-4-23-12l-86-110-47 131c-4 9-10 16-19 19l-132 47 110 86c8 6 12 14 12 24l4 139 116-78c8-5 18-7 27-4l134 39-39-134c-2-9-1-19 4-26l79-116-140-5z" horiz-adv-x="1000" />
<glyph glyph-name="glyph-23" unicode="&#xe817;" d="m814 787l-63 0 0-210c0-102-56-179-174-240 123-62 175-139 175-253 0-74-1-137-1-171l63 0c17 0 31-14 31-31s-14-31-31-31l-627 0c-18 0-32 14-32 31s14 31 32 31l64 0c0 34-1 97-1 171 0 114 51 191 174 253-118 61-173 138-173 240l0 210-64 0c-18 0-32 14-32 31 0 17 14 31 32 31l627 0c17 0 31-14 31-31 0-17-14-31-31-31z m-501-703c0-74 0-137 0-171l376 0c0 34 0 97 0 171 0 87-32 154-189 219-156-65-187-132-187-219z m375 703l-374 0 0-210c0-60 20-138 186-206 167 68 188 146 188 206l0 210z" horiz-adv-x="1000" />
<glyph glyph-name="glyph-24" unicode="&#xe818;" d="m497-149c-236 0-403 163-403 388 0 120 72 248 75 254 6 11 18 17 31 16 12-2 23-11 26-23 0-1 19-73 45-114 17-27 34-46 54-59-13 57-23 144-7 232 45 243 236 301 245 303 10 3 21 0 29-7 8-7 12-18 10-29 0-2-32-171 35-316 6-13 15-29 24-44 2 21 6 43 13 65 24 86 88 115 90 116 11 5 23 4 32-4 10-7 14-18 12-30-1-2-9-60 40-143 45-75 58-124 58-217 0-225-172-388-409-388z m-306 542c-17-43-35-100-35-154 0-189 141-326 341-326 201 0 347 137 347 326 0 82-10 120-49 185-26 43-39 82-45 113-6-10-12-22-16-37-19-67-15-145-15-145 1-14-7-27-20-32s-28 0-36 11c-3 4-58 82-83 135-51 110-50 229-45 298-51-30-130-97-155-234-25-132 23-265 23-266 5-11 2-23-5-32-8-9-20-12-31-10-4 1-92 24-149 114-10 16-19 35-27 54z" horiz-adv-x="1000" />
<glyph glyph-name="glyph-25" unicode="&#xe819;" d="m999 388c-1 11-5 21-11 30l0 0-1 0c-3 5-7 8-11 12l-408 394c-35 35-97 35-132 0l-408-391c-9-8-28-31-28-52l0-469c0-34 28-62 62-62l875 0c35 0 63 28 63 62l0 467c0 3 0 6-1 9z m-735-247l-202-185 0 362 202-177z m64-26c2 1 4 3 6 5 0 1 1 1 1 2l138 127c7 5 15 8 24 8 9 0 18-3 24-8l375-337-788 0 220 203z m412 22l197 175 0-353-197 178z m-639 281l379 361c6 6 14 10 22 10 8 0 16-4 22-10l353-336-1 0 54-54-237-210-132 119c-37 28-90 30-129-2l-122-113-236 209 26 26 1 0z" horiz-adv-x="1000" />
<glyph glyph-name="glyph-26" unicode="&#xe81a;" d="m999 388c-1 11-5 21-11 30l0 0-1 0c-3 5-7 8-11 12l-164 164 0 101c0 17-13 31-31 31l-99 0-114 98c-35 35-97 35-132 0l-114-98-103 0c-18 0-32-14-32-31l0-103-159-159c-17-11-28-31-28-52l0-469c0-34 28-62 62-62l875 0c35 0 63 28 63 62l0 467c0 3 0 6-1 9z m-736-246l-201-186 0 362 201-176z m60-30c4 2 8 5 11 8 2 2 3 4 4 6l135 125c7 6 15 9 24 9 9 0 18-3 24-8l375-340-789 0 216 200z m418 25l196 175 0-353-196 178z m136 306l-1 0 54-54-118-104 0 223 65-65z m-397 336c6 6 14 10 22 10 8 0 16-4 22-10l63-53-170 0 63 53z m270-115l0-435-56-49-133 120c-37 29-90 30-129-1l-123-115-59 52 0 428 500 0z m-649-246l86 86 0-213-113 101 26 26 1 0z" horiz-adv-x="1000" />
<glyph glyph-name="copyright" unicode="&#xe81b;" d="m642 251v-61q0-28-21-50t-52-34-66-18-65-6q-115 0-192 78t-76 193q0 113 76 189t189 76q19 0 42-3t52-10 51-19 39-31 15-45v-61q0-9-8-9h-66q-9 0-9 9v39q0 24-37 38t-76 13q-79 0-128-51t-49-132q0-85 51-140t130-55q38 0 77 14t39 37v39q0 4 3 6t5 3h67q3 0 6-3t3-6z m-213 456q-73 0-139-28t-114-76-76-114-29-139 29-139 76-113 114-77 139-28 138 28 114 77 76 113 29 139-29 139-76 114-114 76-138 28z m428-357q0-117-57-215t-156-156-215-58-216 58-155 156-58 215 58 215 155 156 216 58 215-58 156-156 57-215z" horiz-adv-x="857.1" />
<glyph glyph-name="glyph-28" unicode="&#xe81c;" d="m997 30l-183 338c19 42 29 89 29 138 0 190-153 344-343 344-190 0-344-154-344-344 0-50 11-98 31-141l-184-335c-6-11-5-24 2-34 8-10 20-14 32-12l157 36 54-149c4-12 15-20 27-21 1 0 2 0 2 0 12 0 22 6 28 17l160 298c11-2 23-2 35-2 11 0 21 0 32 1l163-298c6-10 16-16 28-16 1 0 1 0 2 0 12 1 23 9 27 21l54 149 157-36c12-3 24 2 32 12 7 10 8 23 2 34z m-714-72l-39 110c-6 15-21 23-37 20l-116-27 133 241c43-59 105-103 177-125l-118-219z m-64 548c0 155 126 281 281 281 155 0 281-126 281-281s-126-280-281-280c-155 0-281 126-281 280z m574-418c-16 3-31-5-37-20l-39-111-120 220c73 21 137 67 181 127l131-243-116 27z" horiz-adv-x="1000" />
<glyph glyph-name="glyph-29" unicode="&#xe81d;" d="m938 788l-875 0c-35 0-63-28-63-63l0-564c0-34 28-62 63-62l124 0 0-156c0-12 8-24 19-29 4-1 8-2 12-2 8 0 16 3 22 9l181 178 517 0c34 0 62 28 62 62l0 564c0 35-28 63-62 63z m0-627l-543 0-145-143 0 143-187 0 0 564 875 0 0-564z m-719 251l562 0c18 0 32 14 32 31s-14 31-32 31l-562 0c-17 0-31-14-31-31s14-31 31-31z m0 125l562 0c18 0 32 14 32 31s-14 31-32 31l-562 0c-17 0-31-14-31-31s14-31 31-31z m0-250l375 0c17 0 31 14 31 31s-14 31-31 31l-375 0c-17 0-31-14-31-31s14-31 31-31z" horiz-adv-x="1000" />
<glyph glyph-name="glyph-30" unicode="&#xe81e;" d="m500-150c-20 0-38 7-52 21l-427 427c-29 29-29 76 0 105l156 156c10 10 25 12 37 6 12-7 19-20 16-34-1-8-2-16-2-22 0-68 56-125 124-125 68 0 118 57 118 125 0 68-50 124-118 124-6 0-14-1-23-2-13-3-26 4-33 16-6 12-4 27 6 37l146 145c28 28 76 28 105 0l106-106c22 69 87 119 164 119 95 0 172-77 172-172 0-76-51-141-120-164l104-103c29-29 29-76 0-105l-426-426c-14-15-33-22-53-22z m-329 614l-106-105c-4-5-4-12 1-17l426-426c6-6 10-6 16 0l427 426c4 5 4 12 0 17l-151 150c-9 9-12 24-6 36s19 19 32 17l5 0c2-1 5-1 8-1 60 0 109 49 109 109 0 60-49 109-109 109-61 0-110-49-110-109 0-3 1-5 1-7l1-6c1-13-6-26-18-32-12-5-26-3-35 7l-154 153c-6 6-10 6-16 0l-95-95c81-20 136-94 136-181 0-103-78-188-181-188-87 0-161 62-181 143z" horiz-adv-x="1000" />
<glyph glyph-name="glyph-31" unicode="&#xe81f;" d="m930 601l-117 0 0 249-625 0 0-249-118 0c-39 0-70-31-70-70l0-423c0-39 31-70 70-70l118 0 0-188 625 0 0 188 117 0c39 0 70 31 70 70l0 423c0 39-31 70-70 70z m-680 187l500 0 0-187-500 0 0 187z m500-875l-500 0 0 344 500 0 0-344z m188 195c0-4-4-7-8-7l-117 0 0 219-625 0 0-219-118 0c-4 0-7 3-7 7l0 423c0 4 3 8 7 8l860 0c4 0 8-4 8-8l0-423z m-125 368l-32 0c-17 0-31-14-31-32s14-31 31-31l32 0c17 0 31 14 31 31s-14 32-31 32z" horiz-adv-x="1000" />
<glyph glyph-name="glyph-32" unicode="&#xe820;" d="m1000 537c0 35-28 63-62 63l-107 0c27 27 45 63 45 106 0 55-31 113-118 113-115 0-211-122-256-190-45 68-144 190-259 190-87 0-118-58-118-113 0-43 18-79 46-106l-108 0c-35 0-63-28-63-63l0-187 63 0 0-407c0-34 28-62 63-62l749 0c35 0 63 28 63 62l0 407 62 0 0 187z m-242 220c38 0 56-16 56-51 0-69-78-106-151-106l-106 0c45 66 123 157 201 157z m-515 0c78 0 159-91 203-157l-105 0c-73 0-154 38-154 107 0 35 17 50 56 50z m695-345l-407 0 0 125 407 0 0-125z m-875 125l406 0 0-125-406 0 0 125z m63-187l343 0 0-407-343 0 0 407z m749-407l-344 0 0 407 344 0 0-407z" horiz-adv-x="1000" />
<glyph glyph-name="glyph-33" unicode="&#xe821;" d="m33 788l438 0c17 0 31 14 31 31s-14 31-31 31l-438 0c-17 0-31-14-31-31s14-31 31-31z m0-188l438 0c17 0 31 14 31 32s-14 31-31 31l-438 0c-17 0-31-14-31-31s14-32 31-32z m469-156c0 17-14 31-31 31l-438 0c-17 0-31-14-31-31s14-31 31-31l438 0c17 0 31 14 31 31z m487 89l-305 306c-10 9-24 11-36 6-12-5-21-16-21-30l0-692c-33 25-77 40-125 40-103 0-187-70-187-157 0-86 84-156 187-156 104 0 188 70 188 156 0 4 0 8-1 12l0 727 256-256c12-12 32-12 44 0 12 12 12 32 0 44z m-362-530c-2-43-53-90-125-90-74 0-126 49-126 93 0 45 52 94 126 94 72 0 123-47 125-91l0-6z" horiz-adv-x="1000" />
<glyph glyph-name="glyph-34" unicode="&#xe822;" d="m991 479l-359 362c-8 7-19 11-30 8-11-3-19-11-22-21-22-70-25-133-8-190-2-1-3-2-4-4l-167-167c-54 25-112 39-170 39-37 0-73-6-107-16-11-4-19-12-21-23-3-10 0-22 8-29l214-216-299-303-26-69 63 24 306 304 216-218c6-6 14-9 23-9 2 0 5 0 7 1 11 2 19 10 22 21 29 91 20 189-19 277l170 170c1 1 1 1 2 2 26-7 52-11 80-11 34 0 71 5 108 16 11 4 19 12 21 23 3 10 0 22-8 29z m-402-434l-393 396c101 12 210-29 288-108 79-78 117-186 105-288z m-3 262c-16 25-35 49-57 71-22 22-46 41-72 58l141 140c14-25 33-49 56-71 23-24 48-42 74-57l-142-141z m112 242c-60 60-83 127-71 208l280-282c-81-11-148 13-209 74z" horiz-adv-x="1000" />
<glyph glyph-name="glyph-35" unicode="&#xe823;" d="m938 772l-875 0c-35 0-63-28-63-62l0-720c0-34 28-62 63-62l875 0c34 0 62 28 62 62l0 720c0 34-28 62-62 62z m0-782l-875 0 0 185 250 243 259-258c11-13 30-12 43-2l114 104 206-212c1 0 2-1 3-2l0-58z m0 147l-184 188c-11 11-29 12-41 3l-118-103-258 256c-6 7-14 11-23 12-8 0-17-3-23-9l-228-222 0 448 875 0 0-573z m-219 322c34 0 62 28 62 63 0 34-28 62-62 62s-63-28-63-62c0-35 28-63 63-63z" horiz-adv-x="1000" />
<glyph glyph-name="glyph-36" unicode="&#xe824;" d="m970 718l-313 130-312-123-315 123c-3 1-5 1-8 1-12 0-22-9-22-24l0-810c0-18 14-35 30-40l315-124 311 126 314-123c3-1 5-1 8-1 13 0 22 10 22 24l0 802c0 17-13 35-30 39z m-595-45l250 98 0-744-250-98 0 744z m-312 92l250-92 0-744-250 102 0 734z m875-831l-250 94 0 742 250-108 0-728z" horiz-adv-x="1000" />
<glyph glyph-name="glyph-37" unicode="&#xe825;" d="m21 555l464-252c5-3 10-4 15-4 5 0 10 1 15 4l469 252c10 6 17 16 16 28 0 12-6 22-17 28l-464 235c-9 5-19 5-28 0l-469-235c-10-6-17-16-17-28s6-22 16-28z m484 228l397-201-402-216-396 216 401 201z m473-402l-93 47-67-36 78-40-401-216-397 216 84 42-67 36-98-49c-10-5-17-16-17-27s6-23 16-28l464-253c5-2 10-4 15-4 5 0 10 1 15 4l469 253c10 5 16 16 16 28 0 11-7 22-17 27z m0-219l-88 43-67-36 73-35-401-217-397 216 78 35-67 37-92-43c-10-5-17-15-17-27s6-23 16-28l464-253c5-2 10-4 15-4 5 0 10 2 15 4l469 253c10 5 16 16 16 28 0 11-7 22-17 27z" horiz-adv-x="1000" />
<glyph glyph-name="glyph-38" unicode="&#xe826;" d="m999-71l-82 492c-7 64-65 116-129 116l-69 0 0 83c0 128-91 231-218 231-127 0-220-103-220-231l0-83-75 0c-64 0-122-52-129-114l-75-493c-3-26 2-46 15-60 12-14 29-21 52-21l853 0c32 0 51 13 61 24 9 10 19 27 16 56z m-655 691c0 93 64 168 157 168s155-75 155-168l0-83-312 0 0 83z m581-708l-852 0c-5 0-11 2-10 10l76 492c4 33 35 61 67 61l75 0 0-72c-18-10-31-30-31-53 0-35 28-63 63-63s62 28 62 63c0 23-13 43-31 53l0 72 312 0 0-72c-18-10-31-30-31-53 0-35 28-63 63-63s62 28 62 63c0 23-13 43-31 53l0 72 69 0c33 0 64-28 68-62l81-492c0-4-3-9-12-9z" horiz-adv-x="1000" />
<glyph glyph-name="glyph-39" unicode="&#xe827;" d="m1001 350c0 266-209 484-471 499-5 1-11 1-16 1-2 0-4 0-5 0-3 0-6 0-9 0-276 0-501-224-501-500 0-276 225-500 501-500 3 0 6 0 9 0 1 0 3 0 5 0 5 0 11 0 16 1 262 15 471 233 471 499z m-93-161c-17 5-61 16-137 25 6 43 10 89 10 136 0 37-2 74-6 108 96 12 139 27 142 28l-12 32c22-51 34-108 34-168 0-57-11-111-31-161z m-629 161c0 35 2 69 6 102 51-4 112-7 183-8l0-216c-69-1-129-4-179-8-6 41-10 85-10 130z m251 433c77-22 143-128 172-269-47-4-104-7-172-7l0 276z m-62 0l0-276c-67 0-124 3-172 7 30 139 96 245 172 269z m0-618l0-248c-71 23-133 116-166 242 47 3 102 6 166 6z m62-248l0 248c65 0 119-3 166-6-32-128-94-222-166-242z m0 311l0 216c72 1 132 4 182 8 4-33 6-67 6-102 0-45-3-89-10-130-49 4-108 7-178 8z m363 315c-9-2-48-14-128-23-17 94-49 174-90 232 95-42 173-116 218-209z m-543 219c-51-59-92-143-115-243-71 8-113 17-130 21 49 102 138 182 245 222z m-268-280c12-4 57-15 142-24-5-35-8-71-8-108 0-47 5-92 12-135-72-8-117-18-137-22-19 48-30 102-30 157 0 46 8 90 21 132z m36-347c23 5 64 12 124 18 24-87 62-161 108-215-98 36-180 107-232 197z m557-187c37 53 66 123 85 204 62-7 101-15 120-20-47-81-119-146-205-184z" horiz-adv-x="1000" />
<glyph glyph-name="glyph-40" unicode="&#xe828;" d="m219 741l-188 0c-17 0-31-14-31-32l0-187c0-17 14-31 31-31s32 14 32 31l0 156 156 0c17 0 31 14 31 31s-14 32-31 32z m750-532c-17 0-31-14-31-31l0-156-157 0c-17 0-31-14-31-31s14-32 31-32l188 0c17 0 31 14 31 32l0 187c0 17-14 31-31 31z m-750-187l-156 0 0 156c0 17-14 31-32 31s-31-14-31-31l0-187c0-18 14-32 31-32l188 0c17 0 31 14 31 32s-14 31-31 31z m750 719l-188 0c-17 0-31-14-31-32s14-31 31-31l157 0 0-156c0-17 14-31 31-31s31 14 31 31l0 187c0 18-14 32-31 32z" horiz-adv-x="1000" />
<glyph glyph-name="glyph-41" unicode="&#xe829;" d="m938 647l-469 0-94 94-312 0c-35 0-63-28-63-63l0-156 0 0 0-63 0 0 0-437c0-35 28-63 63-63l875 0c34 0 62 28 62 63l0 562c0 35-28 63-62 63z m-875 31l284 0 76-75 20-19 495 0 0-62-875 0 0 156z m0-656l0 437 875 0 0-437-875 0z" horiz-adv-x="1000" />
<glyph glyph-name="glyph-42" unicode="&#xe82a;" d="m781 584l63 0c17 0 31 14 31 31l0 32c0 17-14 31-31 31l-63 0c-17 0-31-14-31-31l0-32c0-17 14-31 31-31z m0-187l63 0c17 0 31 14 31 31l0 31c0 17-14 31-31 31l-63 0c-17 0-31-14-31-31l0-31c0-17 14-31 31-31z m0-188l63 0c17 0 31 14 31 31l0 32c0 17-14 31-31 31l-63 0c-17 0-31-14-31-31l0-32c0-17 14-31 31-31z m0-187l63 0c17 0 31 14 31 31l0 31c0 17-14 31-31 31l-63 0c-17 0-31-14-31-31l0-31c0-17 14-31 31-31z m-625 562l63 0c17 0 31 14 31 31l0 32c0 17-14 31-31 31l-63 0c-17 0-31-14-31-31l0-32c0-17 14-31 31-31z m0-187l63 0c17 0 31 14 31 31l0 31c0 17-14 31-31 31l-63 0c-17 0-31-14-31-31l0-31c0-17 14-31 31-31z m0-188l63 0c17 0 31 14 31 31l0 32c0 17-14 31-31 31l-63 0c-17 0-31-14-31-31l0-32c0-17 14-31 31-31z m0-187l63 0c17 0 31 14 31 31l0 31c0 17-14 31-31 31l-63 0c-17 0-31-14-31-31l0-31c0-17 14-31 31-31z m782 813l-875 0c-35 0-63-29-63-63l0-844c0-34 28-63 63-63l875 0c34 0 62 29 62 63l0 844c0 34-28 63-62 63z m0-907l-875 0 0 844 875 0 0-844z" horiz-adv-x="1000" />
<glyph glyph-name="glyph-43" unicode="&#xe82b;" d="m100 528c-18 0-32-15-32-32 0-18 14-32 32-32 295 0 513-220 513-516 0-17 14-32 32-32s32 15 32 32c0 333-245 580-577 580z m0 319c-18 0-32-14-32-32 0-17 14-32 32-32 459 0 833-373 833-832 0-18 14-32 32-32s32 14 32 32c-1 494-403 896-897 896z m80-641c-97 0-176-79-176-177 0-97 79-177 176-177s176 80 176 177c0 98-79 177-176 177z m0-292c-63 0-115 52-115 115s52 115 115 115c63 0 114-51 114-115s-51-115-114-115z" horiz-adv-x="1000" />
<glyph glyph-name="glyph-44" unicode="&#xe82c;" d="m1000 291c0 20-3 98-6 120-28 255-235 440-491 440-267 0-483-206-498-479 0-6-2-48-3-73l0-14c-1-6-2-12-2-18l0-210c0-45 37-83 83-83l84 0c46 0 84 38 84 83l0 210c0 46-38 83-84 83l-84 0c-6 0-11-1-17-2 1 11 1 19 1 21 13 239 203 419 436 419 224 0 404-161 429-384 1-9 3-33 4-56-6 1-13 2-19 2l-83 0c-46 0-83-37-83-83l0-209c0-31 18-59 44-73l-201-78 0 5c0 17-14 31-31 31l-94 0c-17 0-31-14-31-31l0-31c0-18 14-32 31-32l94 0c0 0 0 0 1 0l56 1 321 126c5 2 8 4 11 7 28 14 48 42 48 75l0 209c0 5-1 10-2 15 1 3 2 6 2 9z m-917-3l84 0c12 0 21-10 21-21l0-210c0-11-9-20-21-20l-84 0c-11 0-20 9-20 20l0 210c0 11 9 21 20 21z m730-21c0 11 9 21 21 21l83 0c11 0 20-10 20-21l0-209c0-11-9-20-20-20l-83 0c-12 0-21 9-21 20l0 209z" horiz-adv-x="1000" />
<glyph glyph-name="glyph-45" unicode="&#xe82d;" d="m1000 260c0 20-3 98-6 120-28 255-235 439-491 439-267 0-483-205-498-478 0-6-2-48-3-73l0-14c-1-6-2-12-2-18l0-272c0-46 37-83 83-83l84 0c46 0 84 37 84 83l0 272c0 46-38 83-84 83l-84 0c-6 0-11-1-17-2 1 10 1 18 1 21 13 239 203 419 436 419 224 0 404-162 429-384 1-9 3-33 4-57-6 2-13 3-19 3l-83 0c-46 0-83-37-83-83l0-271c0-46 37-83 83-83l83 0c46 0 83 37 83 83l0 271c0 5-1 10-2 15 1 3 2 6 2 9z m-917-4l84 0c12 0 21-9 21-20l0-272c0-12-9-21-21-21l-84 0c-11 0-20 9-20 21l0 272c0 11 9 20 20 20z m854-291c0-12-9-21-20-21l-83 0c-12 0-21 9-21 21l0 271c0 11 9 20 21 20l83 0c11 0 20-9 20-20l0-271z" horiz-adv-x="1000" />
<glyph glyph-name="glyph-46" unicode="&#xe82e;" d="m498-149c-188 0-342 152-342 338 0 217 304 630 317 647 6 8 15 13 25 13 11 0 19-5 25-12 13-18 321-423 321-648 0-186-155-338-346-338z m1 913c-73-103-280-412-280-575 0-152 125-275 279-275 157 0 283 123 283 275 0 169-209 474-282 575z" horiz-adv-x="1000" />
<glyph glyph-name="glyph-47" unicode="&#xe82f;" d="m999 352l-115 398c-3 13-16 22-30 22l-718 0c-14 0-26-9-30-23l-105-377c-2-7-1-15 2-21-2-6-3-12-3-18l0-343c0-35 28-62 63-62l875 0c34 0 62 27 62 62l0 343c0 2 0 3 0 5 0 5 0 9-1 14z m-839 358l670 0 91-314-291 0c-1-75-55-127-130-127s-128 52-129 127l-299 0 88 314z m778-720l-875 0 0 343 257 0c27-78 93-126 180-126s154 48 182 126l256 0 0-343z" horiz-adv-x="1000" />
<glyph glyph-name="glyph-48" unicode="&#xe830;" d="m750 850l-344 0c-34 0-62-28-62-62l344 0 0-250 250 0 0-500-219 0 0-63 219 0c34 0 62 28 62 63l0 562-250 250z m0-250l0 162 162-162-162 0z m-687 125c-35 0-63-28-63-62l0-751c0-34 28-62 63-62l531 0c34 0 62 28 62 62l0 563-250 250-343 0z m531-813l-531 0 0 751 281 0 0-250 250 0 0-501z m-188 563l0 162 162-162-162 0z" horiz-adv-x="1000" />
<glyph glyph-name="glyph-49" unicode="&#xe831;" d="m944 559l-175 187c-6 7-14 10-22 10l-261 0-1 65c0 16-14 29-32 29-17 0-29-13-29-29l-1-65-344 0c-18 0-32-14-32-31l0-375c0-17 14-31 32-31l344 0 0-440c0-16 14-29 31-29 17 0 31 13 31 29l0 440 262 0c8 0 16 3 22 10l175 187c11 12 11 31 0 43z m-211-178l-623 0 0 313 623 0 146-156-146-157z" horiz-adv-x="1000" />
<glyph glyph-name="glyph-50" unicode="&#xe832;" d="m813 444c-8 0-34 0-63 0l0 63c0 34-28 62-62 62l-626 0c-34 0-62-27-62-62l0-470c0-103 84-187 187-187l376 0c104 0 187 84 187 187l0 32c28 0 57 0 63 0 103 0 187 83 187 187 0 103-84 188-187 188z m-126-407c0-69-55-125-124-125l-376 0c-69 0-125 56-125 125l0 470 0 0 626 0-1-470z m126 94c-6 0-35 0-63 0l0 251c29 0 55-1 63-1 71 0 126-53 126-124s-54-126-126-126z m-251 501c18 0 32 14 32 31l0 156c0 17-14 31-32 31s-31-14-31-31l0-156c0-17 14-31 31-31z m-375 0c18 0 32 14 32 31l0 156c0 17-14 31-32 31s-31-14-31-31l0-156c0-17 14-31 31-31z m188 0c17 0 31 14 31 31l0 156c0 17-14 31-31 31s-31-14-31-31l0-156c0-17 14-31 31-31z" horiz-adv-x="1000" />
<glyph glyph-name="glyph-51" unicode="&#xe833;" d="m250 240c0-48 121-73 250-77 0 0 0 0 0 0l0-188c0-35 14-125 31-125s32 90 32 125l0 188c0 0-1 0-1 0 130 4 251 29 251 77 0 51-47 88-125 108l0 324c78 27 125 70 125 100 0 104-563 104-563 0 0-33 46-75 125-101l0-323c-79-20-125-57-125-108z" horiz-adv-x="1000" />
<glyph glyph-name="glyph-52" unicode="&#xe834;" d="m977 97c-15 10-183 122-203 134-9 6-20 8-32 8-15 0-32-4-49-13-16-8-65-36-88-50-22 15-71 53-149 131-77 77-115 127-130 148 13 24 41 73 50 89 16 30 17 60 4 81-12 19-123 187-134 203-11 15-30 23-51 23-17 0-34-5-49-16-2-1-149-108-147-168 5-171 171-371 309-509s338-303 509-309l1 0c60 0 166 145 167 147 27 39 17 83-8 101z m-43-65c-40-55-96-112-118-120-117 5-282 108-464 291-182 182-285 346-290 463 8 22 65 79 119 118 4 3 9 4 14 4 1 0 2 0 2 0 18-26 112-168 130-195 0-3-1-10-7-20-5-11-23-43-48-87l-20-34 23-33c17-24 57-77 137-156 80-81 133-121 157-138l32-23 35 20c33 19 73 42 86 49 11 5 18 6 20 6 0 0 1 0 1 0 24-15 170-112 195-130 1-2 1-8-4-15z m-266 445l269 267-1-152c0-12 10-23 22-23l16 0c13 0 23 8 24 21l0 225c0 0-1 1-1 1l2 11c0 7-2 12-6 16-4 4-10 7-16 7l-11-1c0 0-1 0-1 0l-224 1c-13 0-23-10-23-23l0-16c2-15 13-24 26-23l148-1-268-266c-12-12-12-32 0-44 12-12 32-12 44 0z" horiz-adv-x="1000" />
<glyph glyph-name="glyph-53" unicode="&#xe835;" d="m977 97c-15 10-183 122-203 134-9 6-20 8-32 8-15 0-32-4-49-13-16-8-65-36-88-50-22 15-71 53-149 131-77 77-115 127-130 148 13 24 41 73 50 89 16 30 17 60 4 81-12 19-123 187-134 203-11 15-30 23-51 23-17 0-34-5-49-16-2-1-149-108-147-168 5-171 171-371 309-509s338-303 509-309l1 0c60 0 166 145 167 147 27 39 17 83-8 101z m-43-65c-40-55-96-112-118-120-117 5-282 108-464 291-182 182-285 346-290 463 8 22 65 79 119 118 4 3 9 4 14 4 1 0 2 0 2 0 18-26 112-168 130-195 0-3-1-10-7-20-5-11-23-43-48-87l-20-34 23-33c17-24 57-77 137-156 80-81 133-121 157-138l32-23 35 20c33 19 73 42 86 49 11 5 18 6 20 6 0 0 1 0 1 0 24-15 170-112 195-130 1-2 1-8-4-15z m-305 450c4-4 10-6 16-6l11 0c0 0 1 0 1 0l224-1c13 1 23 11 23 24l0 16c-2 15-13 23-26 23l-148 0 256 256c12 12 12 32 0 44-12 12-32 12-44 0l-257-256 1 151c0 13-10 24-22 24l-16-1c-13 0-23-7-24-20l0-226c0 0 1 0 1 0l-2-12c0-6 2-12 6-16z" horiz-adv-x="1000" />
<glyph glyph-name="glyph-54" unicode="&#xe836;" d="m939 655c0-1 0-2 0-2-26-18-168-112-195-129-3-1-10 0-20 6-11 6-43 23-87 49l-34 19-33-23c-24-17-77-57-156-137-81-80-121-132-138-157l-23-32 20-34c19-34 42-74 49-87 5-11 6-18 6-20 0 0 0-1 0-1-15-24-112-170-130-196-2 0-8 0-15 5-55 40-112 96-120 118 5 117 108 282 291 464 182 182 346 285 463 290 22-7 78-65 118-119 3-4 4-9 4-14m61 0c0 17-5 34-16 49-1 2-106 149-166 147-171-5-371-171-509-309-138-138-303-338-309-509l0-1c0-60 146-166 147-167 39-27 83-17 101 8 10 15 122 183 134 203 6 9 8 20 8 32 0 15-4 32-13 49-8 16-36 65-50 89 15 21 53 70 131 148 77 77 127 115 148 130 24-13 73-41 89-50 30-16 60-17 81-4 19 12 185 123 201 134 15 11 23 30 23 51l0 0z" horiz-adv-x="1000" />
<glyph glyph-name="glyph-55" unicode="&#xe837;" d="m938 850l-875 0c-35 0-63-28-63-62l0-876c0-34 28-62 63-62l875 0c34 0 62 28 62 62l0 876c0 34-28 62-62 62z m0-938l-875 0 0 876 875 0 0-876z m-719 594l62 0 0-62c0-18 14-32 32-32s31 14 31 32l0 62 62 0c18 0 32 14 32 31s-14 32-32 32l-62 0 0 62c0 17-14 31-31 31s-32-14-32-31l0-62-62 0c-17 0-31-14-31-32s14-31 31-31z m204-233c-12 12-32 12-44 0l-66-67-67 67c-12 12-32 12-44 0-12-12-12-32 0-44l66-67-66-66c-12-12-12-32 0-44 12-12 32-12 44 0l67 66 66-66c12-12 32-12 44 0 12 12 12 32 0 44l-66 66 66 67c12 12 12 32 0 44z m171 233l187 0c18 0 32 14 32 31s-14 32-32 32l-187 0c-17 0-31-14-31-32s14-31 31-31z m0-312l187 0c18 0 32 14 32 31s-14 31-32 31l-187 0c-17 0-31-14-31-31s14-31 31-31z m0-125l187 0c18 0 32 14 32 31s-14 31-32 31l-187 0c-17 0-31-14-31-31s14-31 31-31z" horiz-adv-x="1000" />
<glyph glyph-name="glyph-56" unicode="&#xe838;" d="m415 187c225 0 400 128 398 320 0 169-179 304-405 304-225 0-408-135-408-304 0-106 51-218 159-273 0-1 0-1 0-2 0-46-38-109-53-135l0 0c-1-2-2-5-2-9 0-12 10-23 23-23 2 0 5 1 6 1 1 0 1 0 1 0 79 13 197 102 215 124 18-3 30-3 45-3 6 0 13 0 21 0z m-92 67l-40-33c-9-11-50-45-84-67 21 61 20 80 20 80l3 38-34 17c-87 45-126 137-126 218 0 134 155 241 346 241 191 0 342-107 342-241-1-149-142-259-333-259 0 0-29-1-59 3l-35 3z m677 0c0 85-33 149-115 198-2-23-9-47-16-68 54-37 69-75 69-130 0-67-32-116-105-153l-31-16c0 0 4-80 8-100-61 44-82 82-82 82l-32-5c-13-2-49-2-49-2-84 0-147 20-201 62 15 1-87 1-89-1 62-76 163-124 290-124 7 0 13 0 19 0 13 0 23 0 39 3 15-19 99-99 168-111 0 0 0 0 1 0 1 0 3 0 5 0 11 0 20 9 20 20 0 3-1 6-2 8l0 0c-13 22-33 88-33 127 0 1 0 1 0 2 93 48 136 117 136 208z" horiz-adv-x="1000" />
<glyph glyph-name="glyph-57" unicode="&#xe839;" d="m938 663l-250 0 0 61c0 51-42 93-94 93l-188 0c-51 0-93-42-93-93l0-61-250 0c-35 0-63-28-63-62l0-219 0 0 0-63 0 0 0-374c0-34 28-62 63-62l875 0c34 0 62 28 62 62l0 656c0 34-28 62-62 62z m-563 61c0 17 14 31 31 31l188 0c17 0 31-14 31-31l0-61-250 0 0 61z m-312-123l875 0 0-219-345 0 0 32c0 34-28 62-62 62l-62 0c-35 0-63-28-63-62l0-32-343 0 0 219z m468-345l-62 0 0 158 62 0 0-158z m-468-311l0 374 343 0 0-63c0-34 28-62 63-62l62 0c34 0 62 28 62 62l0 63 345 0 0-374-875 0z" horiz-adv-x="1000" />
<glyph glyph-name="glyph-58" unicode="&#xe83a;" d="m930 849l-413-112c-11-3-34-3-44 0l-403 111c-35 10-70-16-70-53l0-760c0-31 23-61 54-69l402-112c11-3 25-5 39-5 10 0 25 1 38 5l413 112c30 8 54 38 54 69l0 760c0 37-34 63-70 54z m-461-934l-400 111c-3 1-7 6-7 9l0 750 394-108c4-2 8-2 13-3l0-759z m469 120c0-3-5-8-8-9l-399-108 0 758c1 0 1 0 2 0l405 110 0-751z m-311 457c3 0 6 1 8 1l219 62c17 5 26 22 22 39s-22 26-39 21l-218-61c-17-5-27-22-22-39 4-14 16-23 30-23z m0-187c3 0 6 0 8 1l219 62c17 4 26 21 22 38s-22 26-39 22l-218-62c-17-5-27-22-22-38 4-14 16-23 30-23z m0-188c3 0 6 1 8 1l219 62c17 5 26 22 22 39s-22 26-39 21l-218-61c-17-5-27-22-22-39 4-14 16-23 30-23z m-242 437l-218 61c-17 5-34-5-39-21s5-34 22-39l219-62c2 0 5-1 8-1 14 0 26 9 30 23 5 17-5 34-22 39z m0-188l-218 62c-17 4-34-5-39-22s5-34 22-38l219-62c2-1 5-1 8-1 14 0 26 9 30 23 5 16-5 33-22 38z m0-187l-218 61c-17 5-34-5-39-21s5-34 22-39l219-62c2 0 5-1 8-1 14 0 26 9 30 23 5 17-5 34-22 39z" horiz-adv-x="1000" />
<glyph glyph-name="glyph-59" unicode="&#xe83b;" d="m992 573c-6 8-15 13-25 13l-98 0-200 171c-25 24-64 24-89 0l-197-171-80 0-50 173c-20 68-66 76-86 76l-133 0c-18 0-31-14-31-31s13-32 31-32l133 0c5 0 18 0 26-30l173-635c4-13 16-22 30-22l422 0c13 0 25 8 29 20l149 439c3 10 2 20-4 29z m-367 139l148-126-297 0 149 126z m171-565l-376 0-99 377 601 0-126-377z m-62-125c-43 0-78-35-78-78s35-79 78-79 79 35 79 79-35 78-79 78z m-281 0c-43 0-78-35-78-78s35-79 78-79 78 35 78 79-35 78-78 78z" horiz-adv-x="1000" />
<glyph glyph-name="glyph-60" unicode="&#xe83c;" d="m992 573c-6 8-15 13-25 13l-664 0-50 173c-20 68-66 76-86 76l-133 0c-18 0-31-14-31-31s13-32 31-32l133 0c5 0 18 0 26-30l173-635c4-13 16-22 30-22l422 0c13 0 25 8 29 20l149 439c3 10 2 20-4 29z m-196-426l-376 0-99 377 601 0-126-377z m-62-125c-43 0-78-35-78-78s35-79 78-79 79 35 79 79-35 78-79 78z m-281 0c-43 0-78-35-78-78s35-79 78-79 78 35 78 79-35 78-78 78z" horiz-adv-x="1000" />
<glyph glyph-name="glyph-61" unicode="&#xe83d;" d="m844 695l-187 0 0 60c0 52-42 94-94 94l-124 0c-52 0-94-42-94-94l0-60-189 0c-34 0-62-28-62-62l0-719c0-35 28-63 62-63l688 0c34 0 62 28 62 63l0 719c0 34-28 62-62 62z m-437 60c0 17 14 31 32 31l124 0c18 0 32-14 32-31l0-60-188 0 0 60z m437-841l-688 0 0 719 189 0 0-65c0 0-1-31 31-31 35 0 31 31 31 31l0 65 188 0 0-65c0 0-2-31 31-31 31 0 31 31 31 31l0 65 187 0 0-719z" horiz-adv-x="1000" />
<glyph glyph-name="glyph-62" unicode="&#xe83e;" d="m967-70c0 0-1 0-1 0-16 0-26 13-27 28-1 12-33 292-471 292l0-179c0-12-7-23-18-28-11-6-24-4-33 4l-406 335c-7 6-11 15-11 25s4 18 12 24l405 332c9 8 22 9 33 4 11-5 18-16 18-28l0-175c181-6 323-65 414-171 149-174 115-426 114-437-2-15-14-26-29-26z m-530 383c0 0 0 0 0 0 312 0 432-106 500-199-10 75-39 165-103 238-84 98-220 150-397 150-18 0-32 14-32 31l0 140-324-267 324-269 0 145c0 8 4 16 9 22 6 6 14 9 23 9z" horiz-adv-x="1000" />
<glyph glyph-name="glyph-63" unicode="&#xe83f;" d="m33-70c1 0 1 0 1 0 16 0 26 13 27 28 1 12 33 292 470 292l1-179c0-12 7-23 18-28 11-6 24-4 33 4l406 335c7 6 11 15 11 25s-4 18-11 24l-406 332c-9 8-22 9-33 4-11-5-18-16-18-28l-1-175c-181-6-322-65-413-171-149-174-115-426-114-437 3-15 14-26 29-26z m531 383c0 0 0 0 0 0-313 0-433-106-501-199 10 75 39 165 103 238 84 98 220 150 398 150 17 0 31 14 31 31l0 140 324-267-324-269 0 145c0 8-3 16-9 22-6 6-14 9-22 9z" horiz-adv-x="1000" />
<glyph glyph-name="glyph-64" unicode="&#xe840;" d="m983 639c-11 5-23 3-32-5l-157-141-143 146 141 162c8 9 10 22 5 32s-15 18-27 18l-9 0c-87 0-237-8-304-76l-13-13c-72-73-85-193-47-284l-361-368c-48-50-48-130 0-179l44-45c25-24 57-37 88-37 32 0 64 13 89 37l365 369c35-18 82-30 122-30 64 0 125 25 171 72l13 14c73 73 72 231 72 301 0 12-7 22-17 27z m-99-286l-11-14c-35-35-81-52-129-52-23 0-55 5-77 14-20 8-38 19-54 34l-401-404c-11-12-27-18-44-18-16 0-32 6-44 18l-44 45c-24 24-24 64 0 89l392 399c-13 19-22 40-28 62l0 0c-15 61-6 145 41 193l14 14c41 41 146 53 204 57l-114-133c-11-11-10-29 1-40l181-186c11-12 29-12 41-2l127 115c-4-62-16-152-55-191z" horiz-adv-x="1000" />
<glyph glyph-name="glyph-65" unicode="&#xe841;" d="m1000 352c0-17-14-31-31-31l-438 0 0-316c0-86-69-155-155-155-85 0-154 69-154 155 0 17 14 31 31 31s31-14 31-31c0-51 42-92 92-92 51 0 92 41 92 92l0 316-437 0c-17 0-31 14-31 31 0 242 176 395 468 405l0 62c0 17 14 31 32 31 17 0 31-14 31-31l0-62c292-10 469-163 469-405z m-63 32c-16 195-175 311-437 311-263 0-421-116-437-311l874 0z" horiz-adv-x="1000" />
<glyph glyph-name="trash" unicode="&#xe842;" d="m286 82v393q0 8-5 13t-13 5h-36q-8 0-13-5t-5-13v-393q0-8 5-13t13-5h36q8 0 13 5t5 13z m143 0v393q0 8-5 13t-13 5h-36q-8 0-13-5t-5-13v-393q0-8 5-13t13-5h36q8 0 13 5t5 13z m142 0v393q0 8-5 13t-12 5h-36q-8 0-13-5t-5-13v-393q0-8 5-13t13-5h36q7 0 12 5t5 13z m-303 554h250l-27 65q-4 5-9 6h-177q-6-1-10-6z m518-18v-36q0-8-5-13t-13-5h-54v-529q0-46-26-80t-63-34h-464q-37 0-63 33t-27 79v531h-53q-8 0-13 5t-5 13v36q0 8 5 13t13 5h172l39 93q9 21 31 35t44 15h178q22 0 44-15t30-35l39-93h173q8 0 13-5t5-13z" horiz-adv-x="785.7" />
<glyph glyph-name="glyph-67" unicode="&#xe843;" d="m500 850c-276 0-500-224-500-500s224-500 500-500 500 224 500 500-224 500-500 500z m125-81c141-42 252-153 294-294l-203 0c-22 38-53 69-91 91l0 203z m62-419c0-104-84-187-187-187s-187 83-187 187 84 187 187 187 187-84 187-187z m-249 433c20 3 41 4 62 4 21 0 42-1 63-4l0-191c-20 5-41 8-63 8s-42-3-62-8l0 191z m-63-14l0-203c-38-22-69-53-91-91l-203 0c42 141 153 252 294 294z m-312-419c0 21 2 42 5 63l190 0c-5-20-8-41-8-63 0-22 3-43 8-62l-190 0c-3 20-5 41-5 62z m312-419c-141 42-252 153-294 294l203 0c22-38 53-69 91-91l0-203z m188-14c-21-3-42-5-63-5-21 0-42 2-62 5l0 191c20-5 40-8 62-8s43 3 63 8l0-191z m62 14l0 203c38 22 69 53 91 91l203 0c-42-141-153-252-294-294z m117 357c5 19 8 40 8 62 0 22-3 43-8 63l190 0c3-21 5-42 5-63 0-21-2-42-4-62l-191 0z" horiz-adv-x="1000" />
<glyph glyph-name="glyph-68" unicode="&#xe844;" d="m670 476l269 267-1-151c0-13 10-24 22-24l16 0c13 1 23 8 24 21l0 225c0 1-1 1-1 1l2 11c0 7-2 12-6 16-4 4-10 7-16 7l-11 0c0 0-1-1-1-1l-224 1c-13 0-23-10-23-23l0-16c2-15 13-24 26-23l148-1-268-266c-13-12-13-32 0-44 12-12 32-12 44 0z m-339-252l-269-266 1 151c1 12-9 23-22 23l-17 0c-13 0-23-8-23-21l-1-225c0-1 1-1 1-1l-2-11c0-7 2-12 6-16 4-4 10-7 16-7l11 1c1 0 1 0 1 0l225-1c13 0 23 10 23 23l0 16c-1 15-13 24-26 23l-147 1 267 266c13 12 13 32 0 44s-32 12-44 0z m669-338l0 225c-1 13-11 21-24 21l-16 0c-12 0-22-11-22-23l1-152-269 267c-12 12-32 12-44 0s-13-32 0-44l268-266-148-1c-13 1-24-8-26-23l0-16c0-13 10-23 23-23l224 1c0 0 1 0 1 0l11-1c6 0 12 3 16 7 4 4 6 9 6 16l-2 11c0 0 1 0 1 1z m-892 900l147 1c13-1 25 8 26 23l0 16c0 13-10 23-23 23l-225-1c0 0 0 1-1 1l-11 0c-6 0-12-3-16-7-4-4-6-9-6-16l2-11c0 0-1 0-1-1l1-225c0-13 10-20 23-21l17 0c13 0 23 11 22 24l-1 150 269-266c12-12 32-12 44 0 13 12 13 32 0 44l-267 266z" horiz-adv-x="1000" />
<glyph glyph-name="glyph-69" unicode="&#xe845;" d="m374 511l0 226c-1 13-11 20-24 20l-16 0c-12 1-22-10-22-23l1-152-260 258c-13 12-32 12-44 0s-13-32 0-44l258-257-147 0c-13 0-24-8-26-23l0-16c0-13 10-23 23-24l224 1c0 0 1 0 1 0l11 0c6 0 12 2 16 6 4 4 6 10 6 16l-2 12c0 0 1 0 1 0z m257-28c4-4 10-6 16-6l11 0c1 0 1 0 1 0l224-1c13 1 23 11 23 24l0 16c-1 15-13 23-26 23l-147 0 259 257c12 12 12 32 0 44s-32 12-45 0l-260-257 1 151c1 13-9 24-22 23l-16 0c-13 0-23-7-24-20l0-226c0 0 1 0 1 0l-2-12c0-6 2-12 6-16z m-262-265c-4 4-10 6-16 6l-11 0c0 0-1 0-1 0l-224 1c-13-1-23-11-23-24l0-16c2-14 13-23 26-23l148 0-259-258c-13-12-13-32 0-44s31-12 44 0l260 258-1-152c0-13 10-24 22-23l16 0c13 0 23 7 24 20l0 226c0 0-1 0-1 0l2 13c0 6-2 12-6 16z m364-56l147 0c13 0 25 9 26 23l0 16c0 13-10 23-23 24l-224 0c0 0 0 0-1 0l-13 0c-6 0-12-4-16-8-4-4-6-10-5-16l1-12c0 0-1 0-1 0l1-226c0-13 10-20 23-20l17 0c13-1 23 10 22 23l-1 151 261-257c13-12 32-12 45 0s12 32 0 44l-259 258z" horiz-adv-x="1000" />
<glyph glyph-name="glyph-70" unicode="&#xe846;" d="m393 356l38 54-131 179-297 0 0-63 265 0 125-170z m504 170l-75-67c-10-9-12-23-3-32l5-8c9-9 24-9 33 0l125 113c0 0 0 0 0 0l9 8c4 5 6 10 6 16 0 6-2 12-6 16l-9 8c0 0 0 0 0 0l-127 116c-9 9-24 9-33 0l-5-8c-9-9-6-23 3-32l74-67-226 0-400-563-265 0 0-62 297 0 400 562 197 0z m85-509c0 0 0 0 0 1l-127 115c-9 9-24 9-33 0l-5-8c-9-8-6-22 3-31l74-68-194 0-112 173-38-54 118-181 229 0-75-68c-10-9-12-23-3-32l5-8c9-8 24-8 33 0l125 113c0 0 0 0 0 1l9 8c4 4 6 10 6 15 0 6-2 12-6 16l-9 8z" horiz-adv-x="1000" />
<glyph glyph-name="glyph-71" unicode="&#xe847;" d="m881-77l-813 0 0 625 252 0 63 61-2 1-313 0c-34 0-62-28-62-62l0-625c0-35 28-63 62-63l813 0c34 0 62 28 62 63l0 489-62-60 0-429z m-617 250l63 0c44 248 260 437 521 437 11 0 22 0 32 0l-114-114c-13-12-13-32 0-44 6-7 14-10 22-10s16 3 22 10l184 189-184 190c-12 12-32 12-44 0-13-13-13-32 0-45l113-113c-10 0-19 0-29 0-296 0-541-217-586-500z" horiz-adv-x="1000" />
<glyph glyph-name="glyph-72" unicode="&#xe848;" d="m844 163c-52 0-97-25-126-64l-411 210c3 13 6 27 6 41 0 18-4 35-9 51l414 201c28-39 74-64 126-64 86 0 156 70 156 156 0 86-70 156-156 156s-156-70-156-156c0-12 1-24 4-35l-420-204c-29 31-70 51-116 51-86 0-156-70-156-156 0-86 70-156 156-156 50 0 94 23 123 59l413-210c-3-12-4-24-4-37 0-86 70-156 156-156s156 70 156 156-70 157-156 157z m0 625c52 0 94-42 94-94s-42-94-94-94-94 42-94 94 42 94 94 94z m-688-532c-51 0-93 42-93 94s42 94 93 94c52 0 94-42 94-94s-42-94-94-94z m688-344c-52 0-94 42-94 94s42 94 94 94 94-42 94-94-42-94-94-94z" horiz-adv-x="1000" />
<glyph glyph-name="glyph-73" unicode="&#xe849;" d="m205-13c-20-40-32-68-141-72 3 106 23 117 63 137 17 9 38 19 61 37l-38 48c-18-14-35-21-51-29-67-33-99-66-99-223l1-32 31 1c165 0 196 37 227 101 7 15 11 24 22 43l-46 42c-14-19-22-37-30-53z m483 679c-69 0-125-56-125-126 0-69 56-125 125-125 70 0 126 56 126 125 0 70-56 126-126 126z m0-188c-34 0-62 28-62 62 0 35 28 63 62 63s63-28 63-63c0-34-28-62-63-62z m312 343c-1 16-13 29-29 30 0 0-175 12-343-50-62-23-112-60-159-115-40-46-79-129-114-198-13-26-26-52-36-71l-174 0c-9 0-18-4-24-11l-114-124c-8-8-10-20-7-30 4-11 12-19 23-21l187-43c12-15 34-39 67-76l71-79 38-161c3-10 10-19 21-22 3-1 6-2 10-2 7 0 14 3 20 8l116 115c7 6 11 15 11 24l0 161c15 10 43 25 69 39 70 40 176 89 220 128 62 55 84 95 106 154 53 142 41 336 41 344z m-100-322c-19-52-36-83-89-129-38-35-144-84-209-120-48-27-77-43-89-53-8-6-12-15-12-25l0-163-66-72-28 118c-1 6-4 10-7 14-58 64-144 160-151 168-4 5-10 9-17 10l-143 33 70 74 178 0c10 0 20 6 26 15 14 23 30 54 48 91 32 63 71 145 105 186 41 47 82 77 134 96 115 43 234 48 288 47 1-57-1-191-38-290z" horiz-adv-x="1000" />
<glyph glyph-name="glyph-74" unicode="&#xe84a;" d="m500 850c-276 0-500-224-500-500 0-276 224-500 500-500 276 0 500 224 500 500 0 276-224 500-500 500z m0-939c-241 0-437 198-437 439s196 438 437 438 438-197 438-438-197-439-438-439z m-46 157l79 0 0 80-79 0 0-80z m45 564c-46 0-83-13-113-37-30-25-44-74-43-115l1-3 72 0c0 25 8 60 24 73 16 12 36 18 59 18 27 0 47-7 62-21 14-15 21-36 21-62 0-23-5-42-16-58-10-16-28-39-53-69-26-24-42-42-49-57-6-14-9-39-9-76l75 0c0 23 2 40 4 51 3 11 12 23 25 37 30 28 54 56 72 83 18 28 26 58 26 90 0 46-13 82-41 107-28 26-67 39-117 39z" horiz-adv-x="1000" />
<glyph glyph-name="glyph-75" unicode="&#xe84b;" d="m562 759c-17 0-31-14-31-31s14-32 31-32c221 0 376-161 376-382 0-222-180-402-401-402-222 0-383 160-383 381 0 18-14 32-31 32s-32-14-32-32c0-255 190-443 446-443s463 208 463 464c0 255-182 445-438 445z m-93-347l0 407c0 17-14 31-31 31-244 0-438-194-438-438 0-17 14-31 31-31l407 0c17 0 31 14 31 31z m-62 32l-343 0c15 184 158 327 343 342l0-342z" horiz-adv-x="1000" />
<glyph glyph-name="glyph-76" unicode="&#xe84c;" d="m942 802c-34 32-72 49-112 49-63 0-108-41-121-53-18-18-618-619-618-619-4-3-7-8-8-14-14-50-82-272-83-274-3-12 0-24 8-32 6-6 15-10 23-10 3 0 6 1 9 2 3 1 232 75 270 86 5 1 9 4 13 8 24 23 584 577 621 616 39 40 58 81 57 123-1 41-21 80-59 118z m-243-104c16-4 54-17 92-55 39-39 49-84 51-94-123-122-406-402-517-513-10 24-27 53-54 80-32 33-66 52-91 62 110 111 398 399 519 520z m-562-573c17-4 53-17 89-54 28-28 42-59 48-78-44-14-139-47-199-67 17 59 48 151 62 199z m762 481c-1-2-3-4-6-6-10 25-27 58-57 88-31 31-62 49-87 60 2 2 4 4 5 4 3 4 36 35 76 35 23 0 46-11 68-32 26-25 39-49 40-73 0-24-13-49-39-76z" horiz-adv-x="1000" />
<glyph glyph-name="glyph-77" unicode="&#xe84d;" d="m781-88l-719 0 0 782 439 0 63 60-1 2-501 0c-35 0-63-28-63-62l0-782c0-34 28-62 63-62l719 0c34 0 62 28 62 62l0 458-62-60 0-398z m170 898c-28 27-59 40-92 40-52 0-90-33-100-44-15-14-429-428-429-428-3-3-6-7-7-11-11-42-67-226-68-228-3-9 0-20 7-26 5-5 11-8 18-8 3 0 5 0 8 1 2 1 192 62 223 72 4 1 8 3 11 6 20 19 401 394 432 426 31 33 47 67 47 102-1 34-18 67-50 98z m-42-156c-18-18-154-153-405-400l-19-19c-29-9-98-31-150-48 17 55 37 122 46 154 53 54 408 408 422 421 2 3 26 26 56 26 17 0 33-8 49-24 20-18 30-36 30-53 0-18-9-37-29-57z" horiz-adv-x="1000" />
<glyph glyph-name="glyph-78" unicode="&#xe84e;" d="m969 161c0 1 0 1 0 2l0 651c0 4 0 7-1 11-3 14-15 25-31 25-5 0-11-1-15-4l-584-152c-11-3-18-11-22-20-2-5-4-10-4-15l0-559c-29 20-67 32-109 32-95 0-172-63-172-141 0-78 77-141 172-141 95 0 173 63 173 141 0 4-1 8-1 12 0 0 0 0 0 0l0 636 531 138 0-521c-30 20-68 32-109 32-95 0-173-63-173-141 0-78 78-141 173-141 95 0 172 63 172 141 0 5 0 10 0 14z m-765-249c-65 0-110 42-110 79 0 37 45 78 110 78 58 0 100-33 108-66l0 0c0-4 1-7 2-9 0-1 0-2 0-3 0-37-45-79-110-79z m593 157c-65 0-110 41-110 78s45 78 110 78c64 0 109-41 109-78s-45-78-109-78z" horiz-adv-x="1000" />
<glyph glyph-name="glyph-79" unicode="&#xe84f;" d="m499 163l7 0c87 0 150 64 150 152l0 372c0 92-66 163-150 163l-7 0c-86 0-155-73-155-163l0-372c0-87 67-152 155-152z m-93 524c0 56 42 101 93 101l7 0c50 0 88-44 88-101l0-372c0-54-35-90-88-90l-7 0c-55 0-93 37-93 90l0 372z m375-181c-17 0-31-14-31-31l0-130c0-186-66-276-203-276l-93 0c-178 0-204 150-204 276l0 130c0 17-14 31-31 31s-31-14-31-31l0-130c0-215 89-339 266-339l15 0 0-94-156 0c-18 0-32-14-32-31s14-31 32-31l375 0c17 0 31 14 31 31s-14 31-31 31l-157 0 0 94 16 0c121 0 266 59 266 339l0 130c0 17-14 31-32 31z" horiz-adv-x="1000" />
<glyph glyph-name="glyph-80" unicode="&#xe850;" d="m938 751l-875 0c-35 0-63-28-63-63l0-562c0-35 28-63 63-63l156 0c20 0 31 26 31 31l0 0c0 6-11 32-31 32l-118 0c-21 0-38 17-38 38l0 485c0 21 17 38 38 38l799 1c21 0 38-17 38-38l0-486c0-21-17-38-38-38l-394 0 74 67c9 9 12 23 3 32l-5 8c-9 9-24 9-33 0l-127-116c0 0 0 0 0 0l-9-8c-4-4-7-10-6-16-1-6 2-11 6-16l9-8c0 0 0 0 0 0l125-113c9-9 24-9 33 0l5 8c9 9 6 23-3 31l-75 68 435 0c34 0 62 28 62 63l0 562c0 35-28 63-62 63z" horiz-adv-x="1000" />
<glyph glyph-name="glyph-81" unicode="&#xe851;" d="m114 319l542 0c17 0 31 14 31 31s-14 32-31 32l-540 0 113 113c12 12 12 32 0 44s-32 12-44 0l-185-190 185-189c6-6 14-9 22-9s16 3 22 9c12 12 12 32 0 44l-115 115z m823 531l-531 0c-35 0-63-28-63-62l0-282 63 0 0 243c0 21 17 38 38 38l454 0c21 0 38-17 38-38l1-799c0-21-17-38-38-38l-455 0c-21 0-38 17-38 38l0 245-63 0 0-283c0-34 28-62 63-62l531 0c35 0 63 28 63 62l0 876c0 34-28 62-63 62z" horiz-adv-x="1000" />
<glyph glyph-name="glyph-82" unicode="&#xe852;" d="m520 204c-12-12-12-32 0-44 6-6 14-9 22-9s16 3 22 9l185 189-185 190c-12 12-32 12-44 0-12-12-12-32 0-44l113-113-602 0c-17 0-31-14-31-32s14-31 31-31l604 0-115-115z m418 646l-563 0c-34 0-62-28-62-62l0-282 63 0 0 243c0 21 17 38 37 38l485 0c21 0 38-17 38-38l1-799c0-21-17-38-38-38l-486 0c-20 0-37 17-37 38l0 245-63 0 0-283c0-34 28-62 62-62l563 0c34 0 62 28 62 62l0 876c0 34-28 62-62 62z" horiz-adv-x="1000" />
<glyph glyph-name="glyph-83" unicode="&#xe853;" d="m94 413l-63 0c-17 0-31-14-31-32l0-62c0-17 14-31 31-31l63 0c17 0 31 14 31 31l0 62c0 18-14 32-31 32z m875-32l-656 0c-18 0-32-14-32-31s14-31 32-31l656 0c17 0 31 14 31 31s-14 31-31 31z m-875-218l-63 0c-17 0-31-14-31-32l0-62c0-17 14-31 31-31l63 0c17 0 31 14 31 31l0 62c0 18-14 32-31 32z m875-32l-656 0c-18 0-32-14-32-31s14-31 32-31l656 0c17 0 31 14 31 31s-14 31-31 31z m-875 532l-63 0c-17 0-31-14-31-32l0-62c0-17 14-31 31-31l63 0c17 0 31 14 31 31l0 62c0 18-14 32-31 32z m219-94l656 0c17 0 31 14 31 31s-14 31-31 31l-656 0c-18 0-32-14-32-31s14-31 32-31z" horiz-adv-x="1000" />
<glyph glyph-name="glyph-84" unicode="&#xe854;" d="m594-150c-284 0-286 12-321 38-19 14-54 24-182 33-10 0-19 4-25 11-2 3-67 97-67 247 0 148 46 216 48 219 6 9 16 14 27 14 105 0 252 135 350 370 17 41 21 68 83 68 36 0 76-26 95-58 41-67 20-210 1-287 65 1 181 1 237 1 77 0 128-46 130-113 0-22-3-50-9-65 17-17 39-43 40-76 1-42-27-74-45-93 4-12 13-29 12-48-2-49-39-80-63-96 2-13 4-38 0-57-17-77-130-108-311-108z m-487 134c112-9 172-22 204-46 24-18 20-25 283-25 81 0 238 3 250 58 4 22-19 44-19 44-6 16 1 34 16 41 0 0 63 22 64 57 1 23-14 36-14 36-10 15-6 34 8 44 0 0 40 24 39 58-1 26-36 45-37 45-7 5-13 13-15 22-2 8 0 18 6 25 0 0 16 25 15 49-1 50-56 52-67 52-79 0-282-1-282-1-10 0-20 5-26 14-6 9-6 20-3 30 31 87 48 225 20 273-9 13-11 27-42 27-4 0-14-3-25-29-105-250-261-394-388-407-11-25-32-77-32-172 0-96 30-171 45-195z" horiz-adv-x="1000" />
<glyph glyph-name="glyph-85" unicode="&#xe855;" d="m993 349l-469 491c-6 6-14 10-23 10-8 0-16-4-22-10l-472-491c-12-13-11-32 1-44 13-12 32-12 44 0l42 44 0-467c0-18 14-32 32-32l218 0c17 0 31 14 31 31l1 313 249 0 0-312c0-18 14-32 31-32l219 0c17 0 31 14 31 32l0 467 42-44c6-6 14-9 22-9 8 0 16 3 22 9 12 11 13 31 1 44z m-150 57l0-493-155 0 0 312c0 17-14 31-32 31l-311 0c-17 0-31-14-31-31l-1-312-156 0 0 493c0 2-1 5-1 7l345 360 343-359c0-3-1-5-1-8z" horiz-adv-x="1000" />
<glyph glyph-name="glyph-86" unicode="&#xe856;" d="m156 471l0 348c0 17-14 31-31 31s-31-14-31-31l0-348c-54-14-94-63-94-121 0-58 40-107 94-121l0-348c0-17 14-31 31-31s31 14 31 31l0 348c54 14 94 63 94 121 0 58-40 107-94 121z m-31-183c0 0 0 0 0 0 0 0 0 0 0 0-35 0-63 28-63 62 0 34 28 62 63 63 0 0 0 0 0 0 0 0 0 0 0 0 35-1 63-29 63-63 0-34-28-62-63-62z m406-4l0 535c0 17-14 31-31 31-17 0-31-14-31-31l0-535c-54-14-94-63-94-121 0-59 40-108 94-122l0-160c0-17 14-31 31-31 17 0 31 14 31 31l0 160c54 14 94 63 94 122 0 58-40 107-94 121z m-31-184c0 0 0 0 0 0 0 0 0 0 0 0-35 0-63 28-63 63 0 34 28 62 63 62 0 0 0 0 0 0 0 0 0 0 0 0 35 0 63-28 63-62 0-35-28-63-63-63z m406 559l0 160c0 17-14 31-31 31-17 0-31-14-31-31l0-160c-54-14-94-63-94-121 0-59 40-108 94-122l0-535c0-17 14-31 31-31 17 0 31 14 31 31l0 535c54 14 94 63 94 122 0 58-40 107-94 121z m-31-184c0 0 0 0 0 0 0 0 0 0 0 0-35 0-63 28-63 63 0 34 28 62 63 62 0 0 0 0 0 0 0 0 0 0 0 0 35 0 63-28 63-62 0-35-28-63-63-63z" horiz-adv-x="1000" />
<glyph glyph-name="glyph-87" unicode="&#xe857;" d="m406 850c284 0 286-12 321-38 19-14 54-24 183-33 9 0 18-4 24-11 2-3 67-97 67-247 0-148-46-215-48-219-6-9-16-14-27-14-105 0-252-135-350-370-17-41-21-68-83-68-36 0-75 26-95 58-41 67-20 210-1 287-65 0-181-1-237-1-77 0-128 46-130 113 0 22 3 51 9 65-17 17-39 43-40 76-1 42 27 75 45 93-4 12-12 29-12 48 2 49 39 80 63 96-2 13-4 38 0 57 17 77 130 108 311 108z m487-134c-112 9-172 22-203 46-25 18-21 25-284 25-80 0-237-3-249-58-5-22 18-44 18-44 6-16-1-34-16-41 0 0-63-22-64-57-1-22 14-36 15-36 9-14 5-34-9-43 0-1-40-25-39-59 1-26 36-45 37-45 7-5 13-13 15-21 2-9 0-19-6-26 0 0-16-25-15-49 1-50 56-52 67-52 79 0 282 1 282 1 11 0 20-5 26-14s6-20 3-29c-31-88-48-226-20-274 9-13 11-27 42-27 4 0 15 3 25 29 105 250 261 394 389 407 11 25 31 77 31 172 0 96-30 171-45 195z" horiz-adv-x="1000" />
<glyph glyph-name="glyph-88" unicode="&#xe858;" d="m900 749l-329-767-116 336-336 102 781 329m81 100c-6 0-13-1-22-5l-932-396c-34-14-36-41-5-61l386-120 127-394c9-15 20-22 30-22 12 0 23 9 31 26l398 932c11 25 5 40-13 40l0 0z" horiz-adv-x="1000" />
<glyph glyph-name="glyph-89" unicode="&#xe859;" d="m938 756l-251 0 0 63c0 17-14 31-31 31s-31-14-31-31l0-63-250 0 0 63c0 17-14 31-31 31-18 0-32-14-32-31l0-63-249 0c-35 0-63-28-63-62l0-781c0-35 28-63 63-63l875 0c34 0 62 28 62 63l0 781c0 34-28 62-62 62z m0-843l-875 0 0 781 249 0 0-32c0-17 14-31 32-31 17 0 31 14 31 31l0 32 250 0 0-32c0-17 14-31 31-31s31 14 31 31l0 32 251 0 0-781z m-219 437l62 0c18 0 32 14 32 31l0 63c0 17-14 31-32 31l-62 0c-17 0-31-14-31-31l0-63c0-17 14-31 31-31z m0-250l62 0c18 0 32 14 32 31l0 63c0 17-14 31-32 31l-62 0c-17 0-31-14-31-31l0-63c0-17 14-31 31-31z m-188 125l-62 0c-17 0-31-14-31-31l0-63c0-17 14-31 31-31l62 0c18 0 32 14 32 31l0 63c0 17-14 31-32 31z m0 250l-62 0c-17 0-31-14-31-31l0-63c0-17 14-31 31-31l62 0c18 0 32 14 32 31l0 63c0 17-14 31-32 31z m-250 0l-62 0c-17 0-31-14-31-31l0-63c0-17 14-31 31-31l62 0c18 0 32 14 32 31l0 63c0 17-14 31-32 31z m0-250l-62 0c-17 0-31-14-31-31l0-63c0-17 14-31 31-31l62 0c18 0 32 14 32 31l0 63c0 17-14 31-32 31z" horiz-adv-x="1000" />
<glyph glyph-name="glyph-90" unicode="&#xe85a;" d="m500 850c-193 0-345-157-345-351 0-145 72-215 128-265 37-33 61-53 61-77l0-53c0-1 0-3 1-4l-1 0 0-90c0-96 62-160 157-160 92 0 155 64 155 160l0 90-1 0c1 1 1 3 1 4l0 53c0 37 27 59 69 95 56 50 120 111 120 247 0 194-152 351-345 351z m-1-938c-59 0-93 37-93 98l0 41c22-7 53-13 94-13 41 0 71 6 94 14l0-42c0-62-35-98-95-98z m185 388c-43-38-91-76-91-143l0-39c-14-9-42-19-93-19-55 0-80 10-93 18l0 40c0 53-42 87-82 123-53 48-107 102-107 219 0 159 123 289 282 289 159 0 282-130 282-289 0-108-47-155-98-199z" horiz-adv-x="1000" />
<glyph glyph-name="glyph-91" unicode="&#xe85b;" d="m266 538l-219 0c-17 0-31-14-31-32l0-625c0-17 14-31 31-31l219 0c17 0 31 14 31 31l0 625c0 18-14 32-31 32z m-32-626l-156 0 0 563 156 0 0-563z m375 440l-219 0c-17 0-31-14-31-31l0-440c0-17 14-31 31-31l219 0c17 0 31 14 31 31l0 440c0 17-14 31-31 31z m-31-440l-156 0 0 377 156 0 0-377z m375 938l-218 0c-18 0-32-14-32-31l0-938c0-17 14-31 32-31l218 0c17 0 31 14 31 31l0 938c0 17-14 31-31 31z m-31-938l-156 0 0 876 156 0 0-876z" horiz-adv-x="1000" />
<glyph glyph-name="glyph-92" unicode="&#xe85c;" d="m1000 350c0 276-224 500-500 500-276 0-500-224-500-500 0-276 224-500 500-500 276 0 500 224 500 500z m-938 0c0 241 197 438 438 438s438-197 438-438-197-438-438-438-438 197-438 438z m470-219l0 352 113-113c12-12 32-12 44 0s12 32 0 44l-190 185-189-185c-6-6-9-14-9-22s3-16 9-22c12-12 32-12 44 0l115 115 0-354c0-17 14-31 31-31s32 14 32 31z" horiz-adv-x="1000" />
<glyph glyph-name="glyph-93" unicode="&#xe85d;" d="m500 850c-276 0-500-224-500-500 0-276 224-500 500-500 276 0 500 224 500 500 0 276-224 500-500 500z m0-939c-241 0-437 198-437 439s196 438 437 438 438-197 438-438-197-439-438-439z m20 628c-12-12-12-32 0-44l113-113-352 0c-17 0-31-14-31-32s14-31 31-31l354 0-115-115c-12-12-12-32 0-44 6-6 14-9 22-9s16 3 22 9l185 189-185 190c-12 12-32 12-44 0z" horiz-adv-x="1000" />
<glyph glyph-name="glyph-94" unicode="&#xe85e;" d="m500 850c-276 0-500-224-500-500 0-276 224-500 500-500 276 0 500 224 500 500 0 276-224 500-500 500z m0-939c-241 0-437 198-437 439s196 438 437 438 438-197 438-438-197-439-438-439z m219 471l-352 0 113 113c12 12 12 32 0 44s-32 12-44 0l-185-190 185-189c6-6 14-9 22-9s16 3 22 9c12 12 12 32 0 44l-115 115 354 0c17 0 31 14 31 31s-14 32-31 32z" horiz-adv-x="1000" />
<glyph glyph-name="glyph-95" unicode="&#xe85f;" d="m0 350c0-276 224-500 500-500 276 0 500 224 500 500 0 276-224 500-500 500-276 0-500-224-500-500z m939 0c0-241-198-438-439-438s-437 197-437 438 196 438 437 438 439-197 439-438z m-471 219l0-352-113 113c-12 12-32 12-44 0s-12-32 0-44l190-185 189 185c6 6 9 14 9 22s-3 16-9 22c-12 12-32 12-44 0l-115-115 0 354c0 17-14 31-31 31s-32-14-32-31z" horiz-adv-x="1000" />
<glyph glyph-name="glyph-96" unicode="&#xe860;" d="m500 850c-276 0-500-224-500-500 0-276 224-500 500-500 276 0 500 224 500 500 0 276-224 500-500 500z m-437-500c0 110 40 210 107 287l617-617c-77-68-177-109-287-109-241 0-437 198-437 439z m768-286l-617 617c77 66 177 107 286 107 241 0 438-197 438-438 0-109-41-209-107-286z" horiz-adv-x="1000" />
<glyph glyph-name="glyph-97" unicode="&#xe861;" d="m500 725c241 0 438-140 438-312 0-173-197-313-438-313l-15 0-11 0c-17 0-28 0-46 3l-35 5-22-27c-11-13-63-56-121-84 11 31 20 66 21 99l0 2 0 6 0 38-34 17c-111 57-174 149-174 254 0 172 196 312 437 312m0 63c-276 0-500-168-500-375 0-129 76-242 209-309 0-1-1-2-1-3 0-56-31-117-49-149l0 0c-2-4-3-7-3-11 0-16 13-29 29-29 2 0 6 1 7 1 0 0 1 0 1 0 97 16 205 102 226 128 22-3 37-4 55-4 8 0 16 1 26 1 276 0 500 167 500 375 0 207-224 375-500 375l0 0z" horiz-adv-x="1000" />
<glyph glyph-name="glyph-98" unicode="&#xe862;" d="m623 632c1 0 2-1 2-2l0-125c0-23 13-45 34-55 9-5 19-8 29-8 12 0 26 4 37 11l213 120 0-445-214 116c-11 8-23 12-36 12-10 0-20-3-29-7-21-11-33-32-34-56l0-123c0-1-1-2-2-2l-558 0c-1 0-2 1-2 2l0 560c0 1 1 2 2 2l558 0m344 31c-6 0-20-2-27-9l-252-149 0 125c0 35-29 64-65 64l-558 0c-36 0-65-29-65-64l0-560c0-35 29-64 65-64l558 0c36 0 65 29 65 64l0 123 257-150c7-7 16-6 22-6 7 0 12 2 13 2 12 5 20 17 20 30l0 562c0 13-8 25-20 30-1 0-6 2-13 2l0 0z" horiz-adv-x="1000" />
<glyph glyph-name="glyph-99" unicode="&#xe863;" d="m906 631l-143 0-75 125-375 0-75-125-144 0c-31 0-94-31-94-92l0-501c0-52 47-94 87-94l821 0c41 0 92 44 92 93l0 501c0 31-31 93-94 93z m32-594c0-13-20-30-30-31l-821 0c-7 1-24 15-24 32l0 501c0 19 26 29 31 30l179 0 18 30 57 95 306 0 56-95 17-30 179 0c22 0 31-29 32-31l0-501z m-438 501c-121 0-219-98-219-219s98-219 219-219 219 98 219 219-98 219-219 219z m0-375c-86 0-156 70-156 156s70 156 156 156 156-70 156-156-70-156-156-156z" horiz-adv-x="1000" />
<glyph glyph-name="glyph-100" unicode="&#xe864;" d="m531 788c-259 0-468-210-468-469s209-469 468-469 469 210 469 469-210 469-469 469z m0-876c-224 0-406 183-406 407s182 406 406 406 407-182 407-406-183-407-407-407z m250 438l-500 0c-17 0-31-14-31-31 0-17 14-31 31-31l500 0c18 0 32 14 32 31 0 17-14 31-32 31z" horiz-adv-x="1000" />
<glyph glyph-name="glyph-101" unicode="&#xe865;" d="m500 850c-276 0-500-224-500-500 0-276 224-500 500-500 276 0 500 224 500 500 0 276-224 500-500 500z m0-939c-241 0-437 198-437 439s196 438 437 438 438-197 438-438-197-439-438-439z m31 452l0 300c0 17-14 31-31 31s-31-14-31-31l0-313c0-9 4-17 9-22 1-1 1-2 2-2l155-155c12-12 32-12 44 0 12 12 12 32 0 44l-148 148z" horiz-adv-x="1000" />
<glyph glyph-name="glyph-102" unicode="&#xe866;" d="m531 788c-259 0-468-210-468-469s209-469 468-469 469 210 469 469-210 469-469 469z m0-876c-224 0-406 183-406 407s182 406 406 406 407-182 407-406-183-407-407-407z m250 438l-218 0 0 219c0 17-14 31-32 31s-31-14-31-31l0-219-219 0c-17 0-31-14-31-31 0-17 14-31 31-31l219 0 0-219c0-17 14-31 31-31s32 14 32 31l0 219 218 0c18 0 32 14 32 31 0 17-14 31-32 31z" horiz-adv-x="1000" />
<glyph glyph-name="glyph-103" unicode="&#xe867;" d="m745 596c-43 116-137 189-279 189-180 0-306-134-316-308-87-28-150-116-150-217 0-123 97-226 211-226l28 0c17 0 31 14 31 31s-14 31-31 31l-28 0c-81 0-149 75-149 164 0 79 55 150 124 162l28 5-2 28-1 1c0 152 101 267 255 267 125 0 194-62 227-166l6-21 23-1c116-2 218-97 218-214 0-106-71-225-178-225l-9 0c-17 0-31-14-31-31s14-31 31-31l0 0c157 4 247 153 247 287 0 145-113 260-255 275z m-114-503c-8 9-23 9-31 0l-69-76 0 315c0 17-14 31-31 31s-32-14-32-31l0-315-66 74c-9 9-23 11-32 2l-8-5c-8-9-8-23 0-33l113-124c0-1 0-1 1-1l7-8c5-5 11-7 16-7 6 0 12 2 16 7l8 8c0 0 0 0 0 1l116 126c9 9 9 20 0 29l-8 7z" horiz-adv-x="1000" />
<glyph glyph-name="glyph-104" unicode="&#xe868;" d="m745 596c-43 116-137 189-279 189-180 0-306-134-316-308-87-28-150-116-150-217 0-122 97-226 211-226l90 0c17 0 31 14 31 31 0 17-14 31-31 31l-90 0c-81 0-149 75-149 164 0 79 55 150 124 162l28 5-2 28-1 1c0 152 101 267 255 267 125 0 194-62 227-166l6-21 23-1c116-2 218-97 218-214 0-106-71-225-178-225l-71 0c-17 0-31-14-31-31 0-17 14-31 31-31l71 0c156 4 238 153 238 287 0 145-113 260-255 275z m-222-249c0 0 0 1 0 1l-8 8c-4 5-10 7-16 7-5 0-11-2-16-7l-7-8c-1 0-1-1-1-1l-113-125c-8-9-8-23 0-33l8-5c9-9 23-6 32 3l66 74 0-315c0-17 14-31 32-31s31 14 31 31l0 315 69-76c8-9 23-12 31-3l8 5c9 10 9 24 0 33l-116 127z" horiz-adv-x="1000" />
<glyph glyph-name="glyph-105" unicode="&#xe869;" d="m547 850l-344 0c-34 0-62-28-62-62l0-876c0-34 28-62 62-62l594 0c34 0 62 28 62 62l0 626-312 312z m250-338l0-6-281 0 0 282 5 0 276-276z m-594-600l0 876 250 0 0-344 344 0 0-532-594 0z" horiz-adv-x="1000" />
<glyph glyph-name="glyph-106" unicode="&#xe86a;" d="m1000 623c0 6 0 13-3 18-8 35-33 53-75 53l-813 0c-37 0-77-14-97-41-1-1-3-2-4-4-7-7-9-17-7-26-1-2-1-5-1-7l0-500c0-52 58-110 109-110l813 0c52 0 78 58 78 110l0 500c0 2 0 5 0 7z m-891 8l813 0c0 0 0 0 0 0l-422-336-421 335c10 2 22 1 30 1z m813-562l-813 0c-17 0-46 29-46 47l0 447 417-333c5-5 13-8 20-8s15 3 21 8l417 333 0-447c0-18 1-47-16-47z" horiz-adv-x="1000" />
<glyph glyph-name="glyph-107" unicode="&#xe86b;" d="m503 536c-103 0-187-84-187-187 0-104 84-188 187-188s188 84 188 188c0 103-84 187-188 187z m0-312c-68 0-126 57-126 126 0 69 56 125 125 125 69 0 125-56 125-125 0-69-55-126-124-126z m497 133c-1 2 0 4-1 5 0 1-1 1-1 2 0 1 0 2 0 3-91 208-287 327-496 327-209 0-409-119-500-327 0-1 0-2 0-3 0-1-1-1-1-2-1-1 0-3-1-4 0-3-1-6-1-9 0-3 1-5 1-8 1-2 0-3 1-5 0-1 1-1 1-2 0 0 0-2 0-2 91-208 289-326 498-326 209 0 407 117 498 325 0 1 0 2 0 3 0 1 1 1 1 2 1 1 0 3 1 5 0 2 1 5 1 8 0 3-1 5-1 8z m-500-289c-177 0-351 94-437 281 85 187 262 283 439 283 177 0 350-96 435-283-85-187-259-281-437-281z" horiz-adv-x="1000" />
<glyph glyph-name="glyph-108" unicode="&#xe86c;" d="m664 757c-156 0-198 94-396 94-127 0-205-97-205-97l0-873c0-18 14-32 31-32s31 14 31 32l0 398c33 21 79 40 135 40 198 0 256-93 412-93s266 93 266 93l0 532c0 0-118-94-274-94z m211-406c-35-23-110-63-203-63-62 0-103 17-157 38-64 26-138 56-255 56-53 0-98-13-135-31l0 378c24 21 75 59 143 59 92 0 144-22 199-46 54-23 111-48 197-48 83 0 156 23 211 48l0-391z" horiz-adv-x="1000" />
<glyph glyph-name="glyph-109" unicode="&#xe86d;" d="m413 598c-12 137-155 205-161 207-6 3-12 4-18 3-166-28-191-124-192-128-1-5-1-11 1-17 197-612 607-725 742-762 10-3 19-6 25-8 3-1 7-1 10-1 4 0 9 1 13 3 4 1 101 47 125 197 1 6 0 13-3 19-2 4-53 101-194 135-10 3-20 0-28-6-44-38-106-79-132-83-178 87-278 254-282 286-2 18 39 80 86 131 6 7 9 15 8 24z" horiz-adv-x="1000" />
<glyph glyph-name="glyph-110" unicode="&#xe86e;" d="m188 475l187 0 0-375 250 0-1 375 189 0-313 313z m562-500l-500 0 0 125-125 0 0-125 0-125 750 0 0 125 0 125-125 0z" horiz-adv-x="1000" />
<glyph glyph-name="glyph-111" unicode="&#xe86f;" d="m563 131l-32 0 0 280c0 0 0 0 0 1s0 0 0 1c0 17-14 31-31 31l-62 0c-18 0-32-14-32-31s14-32 32-32l31 0 0-250-31 0c-18 0-32-14-32-31s14-31 32-31l125 0c17 0 31 14 31 31s-14 31-31 31z m-63 375c35 0 63 28 63 63s-28 62-63 62-62-28-62-62 28-63 62-63z m0 344c-276 0-500-224-500-500 0-276 224-500 500-500 276 0 500 224 500 500 0 276-224 500-500 500z m0-939c-241 0-437 198-437 439s196 438 437 438 438-197 438-438-197-439-438-439z" horiz-adv-x="1000" />
<glyph glyph-name="glyph-112" unicode="&#xe870;" d="m640 850c-155 0-281-126-281-282 0-69 26-133 67-182-8 0-17-3-24-9l-314-317c-13-12-13-32 0-44 0 0 0-1 0-1 0 0 0 0 1 0l153-156c12-13 32-13 44 0s12 32 0 44l-132 135 80 81 133-135c12-13 32-13 44 0s12 32 0 44l-133 135 169 170c6 6 9 15 9 23 49-43 114-69 184-69 156 0 282 126 282 281 0 156-126 282-282 282z m0-500c-120 0-218 98-218 219 0 121 98 219 218 219s219-98 219-219c0-121-98-219-219-219z" horiz-adv-x="1000" />
<glyph glyph-name="glyph-113" unicode="&#xe871;" d="m289 135c6-6 14-9 22-9s16 3 22 9l379 381c12 13 12 32 0 44s-32 13-45 0l-378-381c-12-12-12-32 0-44z m176 66c10-45-1-90-36-125l-126-123c-27-26-62-41-100-41s-73 15-99 41c-55 55-55 145-1 199l124 127c26 27 62 42 99 42 13 0 25-3 37-6l49 49c-27 12-56 19-86 19-52 0-104-20-144-59l-123-127c-79-80-79-208 0-288 40-39 92-59 144-59s104 20 144 59l126 122c60 61 73 146 41 220l-49-50z m476 590c-40 39-92 59-144 59-52 0-104-20-144-59l-126-122c-62-63-75-157-38-233l48 49c-14 48-3 102 34 139l127 123c26 26 61 41 99 41 38 0 73-15 99-41 55-55 55-145 1-199l-126-126c-27-27-62-41-100-41-9 0-18-1-27 0l-50-49c25-11 51-14 77-14 52 0 104 20 144 60l126 125c79 80 79 208 0 288z" horiz-adv-x="1000" />
<glyph glyph-name="glyph-114" unicode="&#xe872;" d="m781 474l-446 0-16 73c-28 102 20 205 130 234 108 29 204-33 232-137l13-53c5-17 22-27 39-22 16 4 26 21 22 38l-14 53c-37 138-166 220-308 182-143-39-211-175-174-312l12-56-52 0c-69 0-125-56-125-125l0-375c0-69 56-125 125-125l562 0c69 0 125 56 125 125l0 375c0 69-56 125-125 125z m63-500c0-35-28-63-63-63l-562 0c-35 0-63 28-63 63l0 375c0 34 28 62 63 62l562 0c35 0 63-28 63-62l0-375z m-344 312c-34 0-62-28-62-62 0-23 12-43 31-54l0-102c0-18 14-32 31-32s31 14 31 32l0 102c19 11 32 31 32 54 0 34-28 62-63 62z" horiz-adv-x="1000" />
<glyph glyph-name="glyph-115" unicode="&#xe873;" d="m991-96l-304 305c57 68 91 155 91 250 0 216-175 391-391 391-215 0-390-175-390-391 0-215 175-390 390-390 98 0 188 36 256 96l304-306c12-12 32-12 44 0 12 13 12 32 0 45z m-604 227c-181 0-328 147-328 328s147 329 328 329 329-147 329-329-147-328-329-328z" horiz-adv-x="1000" />
<glyph glyph-name="glyph-116" unicode="&#xe874;" d="m991-96l-276 278c59 71 94 162 94 261 0 225-181 407-405 407s-407-182-407-407c0-224 182-407 407-407 102 0 195 39 267 101l276-278c12-12 32-12 44 0 12 13 12 32 0 45z m-588 196c-189 0-344 155-344 344s155 344 344 344 344-155 344-344-155-344-344-344z m156 375l-125 0 0 125c0 17-14 31-31 31s-31-14-31-31l0-125-125 0c-18 0-32-14-32-31s14-31 32-31l125 0 0-125c0-18 14-32 31-32s31 14 31 32l0 125 125 0c17 0 31 14 31 31s-14 31-31 31z" horiz-adv-x="1000" />
<glyph glyph-name="glyph-117" unicode="&#xe875;" d="m991-96l-276 278c59 71 94 162 94 261 0 225-181 407-405 407s-407-182-407-407c0-224 182-407 407-407 102 0 195 39 267 101l276-278c12-12 32-12 44 0 12 13 12 32 0 45z m-588 196c-189 0-344 155-344 344s155 344 344 344 344-155 344-344-155-344-344-344z m156 375l-312 0c-18 0-32-14-32-31s14-31 32-31l312 0c17 0 31 14 31 31s-14 31-31 31z" horiz-adv-x="1000" />
<glyph glyph-name="glyph-118" unicode="&#xe876;" d="m169-134c-43 0-83 17-116 50-72 72-72 190 0 262l561 595c87 88 222 80 319-18 44-44 69-107 68-174-1-66-27-129-71-173l-424-451c-11-13-31-13-44-1-12 12-13 31-1 44l424 452c34 33 53 81 53 130 1 50-17 97-49 129-60 60-158 91-230 19l-561-596c-48-48-48-126-1-174 23-22 49-33 77-31 28 1 57 16 81 40l446 475c17 16 49 56 16 89-19 19-32 18-36 17-13-1-27-9-42-24l-336-357c-12-13-32-14-44-2-13 12-13 32-1 44l336 358c27 27 54 41 81 44 22 2 54-3 86-36 49-48 43-119-15-177l-446-475c-36-35-79-56-122-59-3 0-6 0-9 0z" horiz-adv-x="1000" />
<glyph glyph-name="glyph-119" unicode="&#xe877;" d="m981 850c-6 0-14-2-22-5l-932-396c-34-14-36-41-5-61l263-164c31-19 72-60 91-92l158-258c9-15 20-23 31-23 12 0 23 9 30 27l399 932c11 25 5 40-13 40z m-663-570l-214 133 717 304-461-469c-14 12-29 24-42 32z m241-324l-127 209c-8 12-17 25-29 38l464 471-308-718z" horiz-adv-x="1000" />
<glyph glyph-name="glyph-120" unicode="&#xe878;" d="m531 788c-259 0-468-210-468-469s209-469 468-469 469 210 469 469-210 469-469 469z m0-876c-224 0-406 183-406 407s182 406 406 406 407-182 407-406-183-407-407-407z m173 624l-172-172-154 172c-12 12-32 12-44 0-12-12-12-32 0-44l154-172-174-174c-12-12-12-32 0-44 12-13 32-13 44 0l172 171 154-171c12-13 32-13 44 0s13 32 0 44l-154 172 174 174c13 12 13 32 0 44-12 12-32 12-44 0z" horiz-adv-x="1000" />
<glyph glyph-name="glyph-121" unicode="&#xe879;" d="m500 100l313 313-188 0 0 375-250 0 1-375-188 0z m-375-125l0-125 750 0 0 125 0 125-125 0 0-125-500 0 0 125-125 0z" horiz-adv-x="1000" />
<glyph glyph-name="glyph-122" unicode="&#xe87a;" d="m685 690c-15 7-34 0-41-15-8-16-1-34 15-42 158-74 244-246 209-418-42-204-242-336-446-294-99 21-180 78-235 162-56 85-75 185-55 284 24 118 100 214 209 266 15 7 22 26 15 41-8 16-26 23-42 15-126-60-215-172-243-309-24-115-1-233 64-331 64-98 159-165 275-189 29-6 59-9 88-9 205 0 389 144 431 352 41 200-59 400-244 487z m-185-246c17 0 31 14 31 31l0 344c0 17-14 31-31 31-17 0-31-14-31-31l0-344c0-17 14-31 31-31z" horiz-adv-x="1000" />
<glyph glyph-name="glyph-123" unicode="&#xe87b;" d="m486-28c0 1 0 1-1 1l-89 140c-7 11-21 15-31 9l-8-5c-11-6-11-21-4-32l57-89c-5 1-10 2-15 3-100 27-186 95-234 187-45 88-53 187-23 281 29 94 97 171 184 216 15 8 21 26 13 41-7 15-26 20-41 13-101-53-180-142-214-251-35-110-25-226 28-328 55-107 155-187 272-218 1 0 3 0 4-1l-79-40c-11-6-15-19-8-29l3-8c6-11 17-15 28-9l145 75c1 0 1 0 1 0l10 5c5 3 9 8 10 13 1 6 1 12-2 17l-6 9z m407 565c-56 107-152 187-270 218-8 2-17 4-25 5l78 40c11 6 17 19 11 29l-4 8c-6 11-20 15-31 9l-145-75c0 0 0 0 0 0l-10-5c-6-3-9-8-11-13-1-6 0-12 3-17l6-10c0 0 0 0 0 0l90-140c6-11 20-14 31-9l7 5c11 6 11 21 5 32l-58 90c13-2 25-5 38-8 101-26 183-95 231-187 45-88 53-187 24-281-30-94-95-170-182-216-15-7-21-26-13-41 5-10 16-16 27-16 4 0 9 1 14 3 102 53 177 142 211 251 35 110 25 226-27 328z" horiz-adv-x="1000" />
<glyph glyph-name="glyph-124" unicode="&#xe87c;" d="m499 850c-249 0-453-203-453-453 0-235 181-431 414-451l-90-46c-11-6-17-20-11-30l3-9c7-10 21-14 32-8l150 76c0 1 0 1 1 1l10 5c5 3 9 8 10 14 2 5 1 11-2 17l-6 10c0 0 0 0-1 0l-92 145c-7 11-21 14-32 8l-7-5c-11-6-12-21-5-32l54-85c0 0 0 0-1 0-204 14-364 185-364 390 0 215 175 391 390 391 216 0 392-176 392-391 0-124-57-238-156-312-14-11-17-30-7-44 11-14 30-17 44-6 115 86 181 218 181 362 0 250-204 453-454 453z" horiz-adv-x="1000" />
<glyph glyph-name="glyph-125" unicode="&#xe87d;" d="m938 445l-80 18c-6 20-15 39-24 57l43 72c17 26 25 64 0 89l-44 44c-24 24-65 20-90 3l-71-45c-18 9-37 17-57 24l-18 81c-5 30-31 62-66 62l-62 0c-35 0-56-33-63-62l-20-81c-21-6-41-15-61-25l-72 46c-25 17-66 21-90-3l-44-44c-25-25-17-63 0-89l45-76c-8-17-16-35-22-53l-80-18c-30-6-62-32-62-66l0-63c0-34 33-55 63-62l81-20c5-18 12-34 20-50l-45-76c-17-26-25-64 0-89l44-44c24-25 65-20 90-3l73 46c19-10 39-19 61-26l20-80c7-29 28-62 62-62l63 0c34 0 60 32 66 62l18 81c19 7 38 15 56 24l71-45c25-17 66-22 90 3l44 44c25 25 17 63 0 89l-43 72c9 17 16 35 22 54l82 20c29 7 62 28 62 62l0 63c0 34-32 60-62 66z m0-124c-3-2-8-5-14-6l-116-29-11-33c-5-15-11-30-19-45l-15-31 61-102c4-6 6-11 6-15l-41-41c-4 1-8 3-11 5l-103 65-32-16c-15-8-31-15-46-20l-35-11-25-117c-1-6-5-11-7-13l-56 0c-2 3-5 8-6 14l-29 116-33 10c-18 6-35 13-51 22l-32 16-103-65c-5-3-9-5-13-5l-41 40c0 4 2 9 6 14l63 107-15 30c-7 15-12 28-17 42l-11 33-114 28c-8 2-13 5-15 7l0 58c0 0 0 0 0 0 1 0 6 3 10 4l118 26 11 35c4 14 10 28 18 44l15 31-63 105c-4 7-6 12-6 16l41 41c4-2 8-3 11-5l104-66 33 16c16 9 33 16 50 22l33 10 29 114c2 8 4 13 6 16l58 0c0-1 4-7 5-11l26-119 34-11c16-5 32-11 48-20l32-16 100 64c5 3 9 4 13 4l41-39c0-4-2-9-6-14l-61-103 15-31c9-17 15-33 20-48l11-35 116-25c6-2 12-6 13-8l0-55z m-438 217c-103 0-188-84-188-188 0-103 85-188 188-188 104 0 189 85 189 188 0 104-85 188-189 188z m0-313c-69 0-125 56-125 125 0 69 56 125 125 125 69 0 125-56 125-125 0-69-56-125-125-125z" horiz-adv-x="1000" />
<glyph glyph-name="glyph-126" unicode="&#xe87e;" d="m500 774l114-236 20-42 46-7 260-38-190-189-32-32 8-44 44-264-229 123-41 22-41-22-229-123 44 264 8 44-32 32-189 189 259 38 46 7 20 42 114 236m0 61c-28 0-53-16-65-41l-114-235-260-38c-27-4-49-23-58-48-8-25-2-52 17-71l191-191-44-264c-5-27 7-53 29-69 13-9 27-13 42-13 12 0 24 3 35 9l227 122 227-122c11-6 23-9 35-9 15 0 29 4 42 13 22 16 34 42 29 69l-44 264 191 191c19 19 25 46 17 71-9 25-31 44-58 48l-260 38-114 235c-11 25-37 41-65 41l0 0z" horiz-adv-x="1000" />
<glyph glyph-name="glyph-127" unicode="&#xe87f;" d="m609 850c-216 0-390-175-390-390 0-97 34-185 92-253l-124-125-132 134c-13 12-32 12-45 0s-12-32 0-45l133-133-134-134c-12-12-12-32 0-44 13-13 32-13 45 0l133 133 133-134c12-12 32-12 44 0s12 32 0 44l-133 135 124 125c68-59 157-94 254-94 216 0 391 175 391 391 0 215-175 390-391 390z m0-719c-181 0-329 147-329 329 0 181 148 328 329 328s329-147 329-328c0-182-147-329-329-329z" horiz-adv-x="1000" />
<glyph glyph-name="glyph-128" unicode="&#xe880;" d="m999 828c1 6-1 12-5 16-4 4-10 7-16 6l-12 0c0 0 0 0 0 0l-287 1c-12 0-23-11-23-23l0-16c2-15 13-24 26-24l210 0-250-249c-68 57-155 91-251 91-215 0-390-174-390-390 0-216 175-391 390-391 216 0 391 175 391 391 0 98-36 187-95 255l250 250 0-214c-1-13 9-24 22-24l16 0c13 1 23 8 23 21l1 288c0 0-1 0-1 0l1 12z m-279-588c0-182-147-329-329-329-181 0-328 147-328 329s147 328 328 328c182 0 329-147 329-328z" horiz-adv-x="1000" />
<glyph glyph-name="glyph-129" unicode="&#xe881;" d="m969 381l-95 0c-15 182-161 327-343 343l0 95c0 17-14 31-31 31s-31-14-31-31l0-95c-182-16-328-161-343-343l-95 0c-17 0-31-14-31-31s14-31 31-31l95 0c15-182 161-327 343-343l0-95c0-17 14-31 31-31s31 14 31 31l0 95c182 16 328 161 343 343l95 0c17 0 31 14 31 31s-14 31-31 31z m-500 280l0-280-280 0c15 148 132 265 280 280z m-280-342l280 0 0-280c-148 15-265 132-280 280z m342-280l0 280 280 0c-15-148-132-265-280-280z m0 342l0 280c148-15 265-132 280-280l-280 0z" horiz-adv-x="1000" />
<glyph glyph-name="glyph-130" unicode="&#xe882;" d="m639 786c-10 5-22 5-32-2l-313-246-104 0c-54 0-97-38-97-85l2-206c0-46 43-84 96-84l104 0 312-247c6-4 12-5 18-5 5 0 10 1 14 3 11 6 17 16 17 28l0 816c0 12-6 22-17 28z m-45-785l-272 219c-5 4-11 5-17 5l-114 0c-20 0-34 12-34 22l-1 207c0 10 14 21 34 21l113 0c7 0 13 2 18 6l273 218 0-698z m177 510c-17 2-33-9-36-26-2-17 9-33 26-36 49-8 84-51 84-104 0-51-36-95-85-105-17-3-28-19-24-36 2-15 16-25 30-25 2 0 4 0 6 0 78 16 135 85 135 166 0 83-57 152-136 166z" horiz-adv-x="1000" />
<glyph glyph-name="glyph-131" unicode="&#xe883;" d="m561 786c-10 5-22 5-32-2l-314-246-104 0c-53 0-96-38-96-85l1-206c0-46 44-84 97-84l104 0 312-247c5-4 11-5 17-5 5 0 10 1 15 3 10 6 17 16 17 28l0 816c0 12-7 22-17 28z m-46-785l-271 219c-5 4-11 5-17 5l-114 0c-20 0-34 12-34 22l-2 207c0 10 14 21 34 21l114 0c6 0 12 2 17 6l273 218 0-698z m314 344c0 83-57 152-136 166-17 2-33-9-36-26-3-17 9-33 26-36 49-8 83-51 83-104 0-51-35-95-84-105-17-3-28-19-25-36 3-15 16-25 31-25 2 0 4 0 6 0 78 16 135 85 135 166z m-42 286c-16 6-34-2-40-18-6-16 2-34 18-40 95-35 158-127 158-228 0-102-63-194-158-229-16-6-24-24-18-40 5-13 17-20 29-20 4 0 8 0 11 2 119 44 198 159 198 287 0 127-79 242-198 286z" horiz-adv-x="1000" />
<glyph glyph-name="glyph-132" unicode="&#xe884;" d="m729 34l-197 109c73 58 93 171 93 234l0 132c0 88-116 185-233 185-116 0-236-97-236-185l0-132c0-57 25-174 99-233l-202-110c0 0-53-23-53-53l0-79c0-29 24-53 53-53l676 0c29 0 52 24 52 53l0 79c0 32-52 53-52 53z m-10-122l-656 0 0 56c4 3 10 7 15 9 2 1 3 2 5 2l201 110c19 10 31 28 33 49s-7 42-23 55c-53 42-75 135-75 184l0 132c0 45 84 122 173 122 90 0 170-76 170-122l0-132c0-49-15-142-69-185-16-13-25-33-23-54 1-21 13-39 32-50l197-109c1-1 4-2 5-2 5-2 11-6 15-9l0-56z m228 278l-199 109c73 57 96 171 96 234l0 132c0 87-119 186-236 186-76 0-153-42-198-94 25-2 54-2 78-10 33 26 75 41 120 41 90 0 173-77 173-123l0-132c0-49-18-143-72-185-17-13-25-33-24-54 2-21 14-40 33-50l199-109c2-1 4-2 6-3 5-2 10-5 15-8l0-55-127 0c19-15 25-35 33-63l103 0c29 0 53 24 53 53l0 78c0 31-53 53-53 53z" horiz-adv-x="1000" />
<glyph glyph-name="app" unicode="&#xe885;" d="m389 743h-172c-43 0-77-35-77-77v-172c0-43 34-78 77-78h172c42 0 77 35 77 78v172c0 42-35 77-77 77z m26-249c0-15-12-26-26-26h-172c-14 0-26 11-26 26v172c0 14 12 25 26 25h172c14 0 26-11 26-25v-172z m397 249h-172c-43 0-78-35-78-77v-172c0-43 35-78 78-78h172c42 0 77 35 77 78v172c0 42-35 77-77 77z m25-249c0-15-11-26-25-26h-172c-15 0-26 11-26 26v172c0 14 11 25 26 25h172c14 0 25-11 25-25v-172z m-25-174h-172c-43 0-78-35-78-77v-172c0-43 35-78 78-78h172c42 0 77 35 77 78v172c0 42-35 77-77 77z m25-249c0-14-11-26-25-26h-172c-15 0-26 12-26 26v172c0 14 11 25 26 25h172c14 0 25-11 25-25v-172z m-448 249h-172c-43 0-77-35-77-77v-172c0-43 34-78 77-78h172c42 0 77 35 77 78v172c0 42-35 77-77 77z m26-249c0-14-12-26-26-26h-172c-14 0-26 12-26 26v172c0 14 12 25 26 25h172c14 0 26-11 26-25v-172z" horiz-adv-x="1000" />
<glyph glyph-name="app-b" unicode="&#xe886;" d="m390 741h-172c-42 0-77-34-77-77v-171c0-43 35-78 77-78h172c42 0 77 35 77 78v171c0 43-35 77-77 77z m422 0h-172c-42 0-77-34-77-77v-171c0-43 35-78 77-78h172c42 0 77 35 77 78v171c0 43-35 77-77 77z m0-422h-172c-42 0-77-34-77-77v-172c0-42 35-77 77-77h172c42 0 77 35 77 77v172c0 43-35 77-77 77z m-422 0h-172c-42 0-77-34-77-77v-172c0-42 35-77 77-77h172c42 0 77 35 77 77v172c0 43-35 77-77 77z" horiz-adv-x="1000" />
<glyph glyph-name="me" unicode="&#xe887;" d="m842 156l-204 97c65 51 87 151 87 208v117c0 77-108 163-211 163-104 0-211-86-211-163v-117c0-52 23-155 89-208l-206-97c0 0-47-20-47-46v-71c0-26 21-47 47-47h656c25 0 46 21 46 47v71c0 27-46 46-46 46m-656-117v48c0 18 14 24 20 27l205 97c15 7 25 21 27 37 2 16-4 32-17 42-48 39-71 125-71 171v117c0 49 85 117 164 117 79 0 164-67 164-117v-117c0-45-19-132-69-171-13-10-20-26-18-42 2-17 12-31 27-38l204-96c2-1 20-4 20-29l0-46-656 0z" horiz-adv-x="1000" />
<glyph glyph-name="me-b" unicode="&#xe888;" d="m842 156l-204 96c65 51 87 152 87 208v117c0 77-107 163-211 163-103 0-211-86-211-163v-117c0-51 24-155 89-207l-205-97c0 0-47-21-47-47v-70c0-26 21-47 47-47h655c26 0 47 21 47 47v70c0 28-47 47-47 47" horiz-adv-x="1000" />
<glyph glyph-name="chat" unicode="&#xe889;" d="m730 748h-432c-121 0-220-99-220-221v-217c0-122 99-221 220-221 0 0 171-1 194-2 22-1 31-10 34-16 13-24 21-61 11-103l-6-30c0 0-5-22 58 0 78 33 112 91 136 134 6 13 11 17 14 17 118 5 212 102 212 221v217c0 122-99 221-221 221m163-438c0-90-73-163-163-163h-18 0-18-5c0 0 0-1 0-1-21-2-18-22-20-27 0-80-73-118-73-118 1 57-15 110-37 134-5 5-13 10-30 12 0 0 0 0 0 0h-8-64-159c-90 0-163 73-163 163v217c0 90 73 163 163 163h432c90 0 163-73 163-163v-217z" horiz-adv-x="1000" />
<glyph glyph-name="chat-b" unicode="&#xe88a;" d="m731 748h-433c-121 0-220-99-220-221v-218c0-121 99-220 220-220 0 0 171-2 194-3 23-1 31-9 34-15 13-24 22-61 12-104l-7-30c0 0-4-21 58 0 79 34 112 91 136 135 6 13 12 17 15 17 117 5 212 102 212 220v218c0 122-99 221-221 221" horiz-adv-x="1000" />
<glyph glyph-name="contacts" unicode="&#xe88b;" d="m316 589c0-14-11-26-25-26h-104c-14 0-25 12-25 26 0 14 11 25 25 25h104c14 0 25-11 25-25m0-147c0-14-11-26-25-26h-104c-14 0-25 12-25 26 0 14 11 25 25 25h104c14 0 25-11 25-25m0-147c0-14-11-25-25-25h-104c-14 0-25 11-25 25 0 14 11 26 25 26h104c14 0 25-12 25-26m0-148c0-15-11-26-25-26h-104c-14 0-25 11-25 26 0 14 11 25 25 25h104c14 0 25-11 25-25m435-189h-460c-45 0-82 36-82 81v657c0 45 37 81 82 81h460c44 0 81-36 81-81v-657c0-45-37-81-81-81m-460 765c-15 0-27-12-27-27v-657c0-15 12-27 27-27h460c15 0 27 12 27 27v657c0 15-12 27-27 27h-460z m381-323c0-18-3-34-9-49-5-15-13-26-24-35-10-8-22-12-36-12-9 0-17 2-24 6-7 5-12 10-15 18h-3c-14-16-31-24-51-24-22 0-39 6-52 19-12 14-19 32-19 54 0 27 8 48 25 64 17 15 38 23 65 23 11 0 22-1 35-3 13-2 23-4 32-7l-5-91c0-17 5-25 14-25 8 0 15 5 19 17 5 12 7 27 7 45 0 20-4 38-12 53-8 15-20 27-35 35-15 8-32 12-51 12-25 0-47-5-65-15-19-11-33-25-43-45-10-19-15-41-15-67 0-34 10-60 28-78 18-18 44-28 79-28 13 0 28 2 43 5 16 3 31 7 47 12v-35c-27-11-56-17-88-17-47 0-84 12-110 37-27 25-40 59-40 103 0 31 7 58 20 83 14 25 33 45 58 59 24 14 53 21 85 21 27 0 52-6 73-17 21-11 38-27 50-47 11-21 17-44 17-71m-190-23c0-26 11-39 32-39 11 0 20 4 25 11 6 8 10 21 11 39l2 41c-6 1-13 2-21 2-15 0-27-5-36-15-9-9-13-23-13-39" horiz-adv-x="1000" />
<glyph glyph-name="contacts-b" unicode="&#xe88c;" d="m751 779h-461c-45 0-81-37-81-82v-82h-23c-13 0-25-12-25-26 0-14 12-25 25-25h23v-96h-23c-13 0-25-12-25-26 0-14 12-25 25-25h23v-97h-23c-13 0-25-11-25-25 0-14 12-26 25-26h23v-98h-23c-13 0-25-11-25-25s12-26 25-26h23v-81c0-45 36-82 81-82h461c45 0 82 37 82 82v658c0 45-37 82-82 82z m-87-429c-6-14-14-26-24-35-11-8-23-12-37-12-9 0-17 2-24 6-7 5-12 11-15 18h-3c-13-16-30-24-51-24-22 0-39 6-52 20-13 13-19 31-19 54 0 26 8 47 25 63 17 16 38 24 65 24 11 0 22-1 35-3 13-2 24-5 32-7l-4-91c0-18 4-26 14-26 8 0 14 6 19 17 4 12 7 27 7 46 0 20-4 37-13 53-8 15-20 27-35 35-15 8-32 12-51 12-25 0-47-6-66-16-18-10-32-25-42-44-10-20-15-42-15-67 0-35 9-61 28-79 18-18 44-28 79-28 13 0 28 2 43 5 16 3 32 7 47 13v-36c-27-11-56-17-88-17-47 0-84 12-111 37-26 25-39 59-39 103 0 31 7 59 20 84 14 25 33 44 58 58 24 15 53 22 85 22 28 0 52-6 73-17 22-11 38-27 50-48 12-20 17-44 17-71 0-18-2-34-8-49z m-169 66c-9-10-13-23-13-40 0-26 11-39 32-39 11 0 20 4 26 12 5 8 9 20 10 38l3 41c-7 1-14 2-22 2-15 0-27-5-36-14z" horiz-adv-x="1000" />
<glyph glyph-name="glyph-133" unicode="&#xe88d;" d="m531-25c18 0 32 14 32 31l0 612 134-134c12-12 32-12 44 0 12 12 12 32 0 44l-188 188c-3 3-6 5-10 7-7 3-16 3-24 0-3-2-7-4-10-7 0 0 0 0 0 0l-187-188c-13-12-13-32 0-44 12-12 32-12 44 0l134 134 0-612c0-17 14-31 31-31z" horiz-adv-x="1000" />
<glyph glyph-name="glyph-134" unicode="&#xe88e;" d="m531 725c-17 0-31-14-31-31l0-612-134 134c-12 12-32 12-44 0-12-12-12-32 0-44l187-188c0 0 0 0 0 0 3-3 7-5 10-7 8-3 17-3 24 0 4 2 7 4 10 7l188 188c12 12 12 32 0 44-12 12-32 12-44 0l-134-134 0 612c0 17-14 31-32 31z" horiz-adv-x="1000" />
<glyph glyph-name="glyph-135" unicode="&#xe88f;" d="m125 381c0-4 1-8 2-12 2-3 4-7 7-9 0-1 0-1 0-1l188-187c12-13 32-13 44 0 12 12 12 32 0 44l-134 134 612 0c17 0 31 14 31 31 0 18-14 32-31 32l-612 0 134 134c12 12 12 32 0 44-12 12-32 12-44 0l-188-188c0 0 0 0 0 0-3-3-5-6-7-10-1-4-2-8-2-12l0 0c0 0 0 0 0 0z" horiz-adv-x="1000" />
<glyph glyph-name="glyph-136" unicode="&#xe890;" d="m125 381c0-17 14-31 31-31l612 0-134-134c-12-12-12-32 0-44 12-12 32-12 44 0l188 187c3 3 5 7 7 10 1 4 2 8 2 12 0 0 0 0 0 0l0 0c0 4-1 8-2 12-2 4-4 7-7 10l-188 188c-12 12-32 12-44 0-12-12-12-32 0-44l134-134-612 0c-17 0-31-14-31-32z" horiz-adv-x="1000" />
<glyph glyph-name="glyph-137" unicode="&#xe891;" d="m634 672c12-13 32-13 44 0 13 12 13 32 0 44l-125 125c-3 3-6 5-10 7-7 3-16 3-24 0-3-2-7-4-10-7 0 0 0 0 0 0l-125-125c-12-12-12-32 0-44 12-12 32-12 44 0l72 71 0-786-72 71c-12 13-32 13-44 0-12-12-12-32 0-44l125-125c0 0 0 0 0 0 3-3 7-5 10-7 8-3 17-3 24 0 4 2 7 4 10 7l125 125c13 12 13 32 0 44-12 13-32 13-44 0l-71-71 0 786 71-71z" horiz-adv-x="1000" />
<glyph glyph-name="glyph-138" unicode="&#xe892;" d="m571-141c6-6 14-9 22-9 9 0 17 3 23 9l120 120c12 12 12 32 0 44s-32 13-44 0l-67-66 0 549c0 17-14 31-31 31s-31-14-31-31l0-550-72 72c-13 12-32 12-45 0-12-12-12-32 0-44l125-125z m-165 303c18 0 32 14 32 31l0 550 72-72c12-12 32-12 44 0 12 13 12 32 0 45l-125 125c-6 6-14 9-22 9-8 0-16-3-23-9l-120-121c-12-12-12-32 0-44 12-12 32-12 44 0l67 67 0-550c0-17 14-31 31-31z" horiz-adv-x="1000" />
<glyph glyph-name="glyph-139" unicode="&#xe893;" d="m174 114c12 12 12 32 0 44l-67 67 549 0c18 0 32 14 32 31 0 18-14 32-32 32l-549 0 71 71c12 12 12 32 0 44-12 13-32 13-44 0l-125-125c-6-6-9-14-9-22 0-8 3-16 9-22l121-120c12-13 32-13 44 0z m817 351l-120 121c-13 12-32 12-45 0s-12-32 0-44l67-68-549 0c-17 0-31-14-31-31s14-31 31-31l549 0-71-72c-12-12-12-32 0-44 12-12 32-12 44 0l125 125c6 6 9 14 9 22 0 8-3 16-9 22z" horiz-adv-x="1000" />
<glyph glyph-name="glyph-140" unicode="&#xe894;" d="m998 331c-2 4-4 7-7 10l-125 125c-12 12-32 12-44 0-13-12-13-32 0-44l71-72-786 0 71 72c13 12 13 32 0 44-12 12-32 12-44 0l-125-125c0 0 0 0 0 0-3-3-5-7-7-10-1-4-2-8-2-12l0 0c0 0 0 0 0 0 0-4 1-8 2-12 2-4 4-7 7-10 0 0 0 0 0 0l125-125c12-13 32-13 44 0 13 12 13 32 0 44l-71 72 786 0-71-72c-12-12-12-32 0-44 12-12 32-12 44 0l125 125c3 3 5 6 7 10 1 4 2 8 2 12 0 0 0 0 0 0l0 0c0 4-1 8-2 12z" horiz-adv-x="1000" />
<glyph glyph-name="glyph-141" unicode="&#xe895;" d="m351 219l180 180 181-180c12-12 32-12 44 0 12 12 12 32 0 44l-203 203c-6 6-14 9-22 9-8 0-16-3-22-9l-203-203c-12-12-12-32 0-44 13-12 32-12 45 0z" horiz-adv-x="1000" />
<glyph glyph-name="glyph-142" unicode="&#xe896;" d="m712 419l-181-181-180 181c-13 12-32 12-45 0-12-12-12-32 0-44l203-203c6-6 14-9 22-9 8 0 16 3 22 9l203 203c12 12 12 32 0 44-12 12-32 12-44 0z" horiz-adv-x="1000" />
<glyph glyph-name="glyph-143" unicode="&#xe897;" d="m384 297l203-203c12-12 32-12 44 0 12 12 12 32 0 44l-180 181 180 180c12 13 12 32 0 45-12 12-32 12-44 0l-203-203c-6-6-9-14-9-22 0-8 3-16 9-22z" horiz-adv-x="1000" />
<glyph glyph-name="glyph-144" unicode="&#xe898;" d="m431 94c12-12 32-12 44 0l203 203c6 6 9 14 9 22 0 8-3 16-9 22l-203 203c-12 12-32 12-44 0-12-13-12-32 0-45l181-180-181-181c-12-12-12-32 0-44z" horiz-adv-x="1000" />
<glyph glyph-name="glyph-145" unicode="&#xe899;" d="m733 406l-209 185c-6 6-15 9-23 9-8 0-16-3-22-9l-210-185c-12-12-12-32 0-45 13-12 33-12 45 0l187 166 187-166c13-12 33-12 45 0 12 13 12 33 0 45z m-209-39c-6 6-15 9-23 9-8 0-16-3-22-9l-210-185c-12-12-12-32 0-45 13-12 33-12 45 0l187 166 187-166c13-12 33-12 45 0 12 13 12 33 0 45l-209 185z" horiz-adv-x="1000" />
<glyph glyph-name="glyph-146" unicode="&#xe89a;" d="m686 339l-187-166-187 166c-13 12-33 12-45 0-12-13-12-33 0-45l209-185c7-6 15-9 23-9 8 0 16 3 23 9l209 185c12 12 12 32 0 45s-33 12-45 0z m45 224c-13 12-33 12-45 0l-187-166-187 166c-13 12-33 12-45 0-12-12-12-32 0-45l209-185c6-6 15-9 23-9 8 0 16 3 22 9l210 185c12 13 12 32 0 45z" horiz-adv-x="1000" />
<glyph glyph-name="glyph-147" unicode="&#xe89b;" d="m259 329l185-210c12-12 32-12 45 0s12 33 0 45l-166 187 166 187c12 13 12 33 0 45s-33 12-45 0l-185-209c-6-6-9-15-9-23 0-8 3-16 9-22z m454 254c-12 12-32 12-45 0l-185-209c-6-6-9-15-9-23 0-8 3-16 9-22l185-210c13-12 32-12 45 0s12 33 0 45l-166 187 166 187c12 13 12 33 0 45z" horiz-adv-x="1000" />
<glyph glyph-name="glyph-148" unicode="&#xe89c;" d="m741 372l-185 209c-12 12-32 12-45 0s-12-33 0-45l166-187-166-187c-12-13-12-33 0-45s33-12 45 0l185 209c6 7 9 15 9 23 0 8-3 16-9 23z m-454-255c13-12 32-12 45 0l185 209c6 6 9 15 9 23 0 8-3 16-9 22l-185 210c-12 12-32 12-45 0s-12-33 0-45l166-187-166-187c-12-13-12-33 0-45z" horiz-adv-x="1000" />
<glyph glyph-name="glyph-149" unicode="&#xe89d;" d="m553 466c-6 6-14 9-22 9-8 0-16-3-22-9l-203-203c-12-12-12-32 0-44 13-12 32-12 45 0l180 180 181-180c12-12 32-12 44 0 12 12 12 32 0 44l-203 203z m-20 317c-257 0-466-209-466-466s209-467 466-467 467 209 467 467-209 466-467 466z m0-871c-223 0-404 182-404 405s181 404 404 404 405-181 405-404-182-405-405-405z" horiz-adv-x="1000" />
<glyph glyph-name="glyph-150" unicode="&#xe89e;" d="m712 419l-181-181-180 181c-13 12-32 12-45 0-12-12-12-32 0-44l203-203c6-6 14-9 22-9 8 0 16 3 22 9l203 203c12 12 12 32 0 44-12 12-32 12-44 0z m-178 364c-258 0-467-209-467-466 0-258 209-467 467-467 257 0 466 209 466 467 0 257-209 466-466 466z m0-871c-223 0-404 182-404 405 0 222 181 404 404 404 222 0 404-182 404-404 0-223-182-405-404-405z" horiz-adv-x="1000" />
<glyph glyph-name="glyph-151" unicode="&#xe89f;" d="m631 544c-12 12-32 12-44 0l-203-203c-6-6-9-14-9-22 0-8 3-16 9-22l203-203c12-12 32-12 44 0 12 12 12 32 0 44l-180 181 180 180c12 13 12 32 0 45z m-100 244c-259 0-468-210-468-469s209-469 468-469 469 210 469 469-210 469-469 469z m0-876c-224 0-406 183-406 407s182 406 406 406 407-182 407-406-183-407-407-407z" horiz-adv-x="1000" />
<glyph glyph-name="glyph-152" unicode="&#xe8a0;" d="m678 341l-203 203c-12 12-32 12-44 0-12-13-12-32 0-45l181-180-181-181c-12-12-12-32 0-44 12-12 32-12 44 0l203 203c6 6 9 14 9 22 0 8-3 16-9 22z m-144 442c-258 0-467-209-467-466s209-467 467-467 466 209 466 467-209 466-466 466z m0-871c-223 0-404 182-404 405s181 404 404 404 404-182 404-404-182-405-404-405z" horiz-adv-x="1000" />
<glyph glyph-name="glyph-153" unicode="&#xe8a1;" d="m555 560c-6 6-14 9-23 9-8 0-16-3-22-9l-209-185c-13-13-13-33 0-45 12-12 32-12 44 0l187 166 188-166c12-12 32-12 44 0 12 12 12 32 0 45l-209 185z m0-225c-6 7-14 10-23 10-8 0-16-3-22-10l-209-184c-13-13-13-33 0-45 12-12 32-12 44 0l187 166 188-166c12-12 32-12 44 0 12 12 12 32 0 45l-209 184z m-21 448c-258 0-467-209-467-466s209-467 467-467 466 209 466 467-209 466-466 466z m0-871c-223 0-404 182-404 405s181 404 404 404 404-182 404-404-182-405-404-405z" horiz-adv-x="1000" />
<glyph glyph-name="glyph-154" unicode="&#xe8a2;" d="m717 307l-187-165-187 165c-12 13-32 13-45 0-12-12-12-32 0-44l210-185c6-6 14-9 22-9 8 0 17 3 23 9l209 185c12 12 12 32 0 44s-32 13-45 0z m0 225l-187-166-187 166c-12 12-32 12-45 0-12-13-12-33 0-45l209-185c7-6 15-9 23-9 8 0 17 3 23 9l209 185c12 12 12 32 0 45s-32 12-45 0z m-183 251c-258 0-467-209-467-466s209-467 467-467 466 209 466 467-209 466-466 466z m0-871c-223 0-404 182-404 405s181 404 404 404 404-182 404-404-182-405-404-405z" horiz-adv-x="1000" />
<glyph glyph-name="glyph-155" unicode="&#xe8a3;" d="m354 320l166 187c12 12 12 32 0 45s-32 12-45 0l-185-209c-6-7-9-15-9-23 0-8 3-16 9-23l185-209c13-12 33-12 45 0s12 32 0 45l-166 187z m390 232c-12 12-32 12-44 0l-185-209c-7-7-10-15-10-23 0-8 3-16 10-23l185-209c12-12 32-12 44 0s12 32 0 45l-166 187 166 187c12 12 12 32 0 45z m-213 236c-259 0-468-210-468-469s209-469 468-469 469 210 469 469-210 469-469 469z m0-876c-224 0-406 183-406 407s182 406 406 406 407-182 407-406-183-407-407-407z" horiz-adv-x="1000" />
<glyph glyph-name="glyph-156" unicode="&#xe8a4;" d="m772 340l-185 209c-12 13-32 13-44 0s-13-32 0-44l165-187-165-188c-13-12-13-32 0-44s32-12 44 0l185 209c6 6 9 14 9 23 0 8-3 16-9 22z m-215-22c0 8-3 16-9 22l-185 209c-12 13-32 13-44 0s-13-32 0-44l165-187-165-188c-13-12-13-32 0-44s32-12 44 0l185 209c6 6 9 14 9 23z m-26 470c-259 0-468-210-468-469s209-469 468-469 469 210 469 469-210 469-469 469z m0-876c-224 0-406 183-406 407s182 406 406 406 407-182 407-406-183-407-407-407z" horiz-adv-x="1000" />
<glyph glyph-name="glyph-157" unicode="&#xe8a5;" d="m281 225l437 0c9 0 17 4 22 11l0 0c12 13 12 35 0 49l-218 242c-13 14-32 14-44 0-1 0-1-1-1-1l-218-241c-13-14-13-36 0-49 0 0 0 0 0 0 6-7 13-11 22-11z" horiz-adv-x="1000" />
<glyph glyph-name="glyph-158" unicode="&#xe8a6;" d="m521 235c1 1 1 1 1 1l218 242c12 13 12 35 0 49 0 0 0 0 0 0-6 6-14 11-22 11l-437 0c-9 0-17-5-22-11l0 0c-13-14-13-36 0-49l218-243c12-13 32-13 44 0z" horiz-adv-x="1000" />
<glyph glyph-name="glyph-159" unicode="&#xe8a7;" d="m565 592l-242-219c-14-12-14-32 0-44 0-1 1-1 1-1l241-218c14-12 36-12 49 0 0 0 0 0 0 0 7 6 11 14 11 22l0 437c0 9-4 17-11 22l0 0c-13 13-35 13-49 1z" horiz-adv-x="1000" />
<glyph glyph-name="glyph-160" unicode="&#xe8a8;" d="m434 109l239 219c14 12 14 32 0 44 0 0-1 0-1 1l-238 219c-13 12-35 12-48 0 0-1 0-1-1-1-6-6-10-13-10-22l0-438c0-9 4-17 11-22l0 0c13-13 35-13 48 0z" horiz-adv-x="1000" />
<glyph glyph-name="glyph-161" unicode="&#xe8a9;" d="m531 788c-259 0-468-210-468-469s209-469 468-469 469 210 469 469-210 469-469 469z m0-876c-224 0-406 183-406 407s182 406 406 406 407-182 407-406-183-407-407-407z m19 553c-11 13-28 13-39 0 0-1 0-1 0-1l-191-241c-11-14-11-36 0-50 0 0 0 0 0 0 5-6 12-10 20-10l382 0c7 0 14 4 19 11l0-1c11 14 11 36 0 50l-191 242z" horiz-adv-x="1000" />
<glyph glyph-name="glyph-162" unicode="&#xe8aa;" d="m531 788c-259 0-468-210-468-469s209-469 468-469 469 210 469 469-210 469-469 469z m0-876c-224 0-406 183-406 407s182 406 406 406 407-182 407-406-183-407-407-407z m211 490c-5 6-12 11-20 11l-382 0c-7 0-14-5-19-11l0 0c-11-14-11-36 0-49l191-243c11-13 28-13 38 0 1 1 1 1 1 1l191 242c11 13 11 35 0 49 0 0 0 0 0 0z" horiz-adv-x="1000" />
<glyph glyph-name="glyph-163" unicode="&#xe8ab;" d="m531 788c-259 0-468-210-468-469s209-469 468-469 469 210 469 469-210 469-469 469z m0-876c-224 0-406 183-406 407s182 406 406 406 407-182 407-406-183-407-407-407z m83 618c-13 11-35 11-49 0l-242-191c-14-11-14-28 0-39 0 0 1 0 1 0l241-191c14-11 36-11 49 0 0 0 0 0 0 0 7 5 11 12 11 19l0 382c0 8-4 15-11 20l0 0z" horiz-adv-x="1000" />
<glyph glyph-name="glyph-164" unicode="&#xe8ac;" d="m531 788c-259 0-468-210-468-469s209-469 468-469 469 210 469 469-210 469-469 469z m0-876c-224 0-406 183-406 407s182 406 406 406 407-182 407-406-183-407-407-407z m208 427l-241 191c-14 11-36 11-50 0 0 0 0 0 0 0-6-5-10-12-10-20l0-382c0-7 4-14 11-19l-1 0c14-11 36-11 50 0l242 191c13 11 13 28 0 39-1 0-1 0-1 0z" horiz-adv-x="1000" />
<glyph glyph-name="glyph-165" unicode="&#xe8ad;" d="m281 288l500 0c18 0 32 14 32 31 0 17-14 31-32 31l-500 0c-17 0-31-14-31-31 0-17 14-31 31-31z" horiz-adv-x="1000" />
<glyph glyph-name="glyph-166" unicode="&#xe8ae;" d="m281 288l219 0 0-219c0-17 14-31 31-31s32 14 32 31l0 219 218 0c18 0 32 14 32 31 0 17-14 31-32 31l-218 0 0 219c0 17-14 31-32 31s-31-14-31-31l0-219-219 0c-17 0-31-14-31-31 0-17 14-31 31-31z" horiz-adv-x="1000" />
<glyph glyph-name="glyph-167" unicode="&#xe8af;" d="m314 102c12-13 32-13 44 0l173 173 173-173c12-13 32-13 44 0 13 12 13 32 0 44l-173 173 173 173c13 12 13 32 0 44-12 12-32 12-44 0l-173-173-173 173c-12 12-32 12-44 0-12-12-12-32 0-44l173-173-173-173c-12-12-12-32 0-44z" horiz-adv-x="1000" />
<glyph glyph-name="glyph-168" unicode="&#xe8b0;" d="m431 50c1-1 2-2 3-3 2-1 4-1 6-2 3-1 5-2 7-3 3-1 5-1 8-1 3-1 7-1 10 0 2 0 3 0 4 1 5 1 9 3 13 5 0 0 1 1 2 1 2 2 5 3 7 6 2 1 2 4 4 6 0 0 0 0 0 0l372 597c14 20 8 47-12 60s-48 8-61-12l-344-552-190 185c-18 17-46 16-62-2-16-18-15-46 2-62l229-223c1 0 1 0 2-1z" horiz-adv-x="1000" />
<glyph glyph-name="glyph-169" unicode="&#xe8b1;" d="m503 850c-276 0-500-224-500-500s224-500 500-500 500 224 500 500-224 500-500 500z m0-938c-242 0-438 197-438 438s196 438 438 438 437-197 437-438-196-438-437-438z m219 637c-21 13-48 7-61-13l-211-322-101 93c-18 17-45 15-62-2s-15-46 3-62l139-129c1-1 1-1 2-1 1-1 2-2 3-3 2-2 4-2 6-3 3-1 5-2 7-3 3 0 5-1 8-1 3 0 7 0 10 0 2 1 3 1 4 1 5 1 9 3 13 5 0 1 1 1 2 2 2 2 5 3 7 5 2 2 2 4 4 6 0 0 0 0 0 0l239 366c14 21 8 48-12 61z" horiz-adv-x="1000" />
<glyph glyph-name="glyph-170" unicode="&#xe8b2;" d="m813 725l-625 0c-35 0-63-28-63-62l0-625c0-35 28-63 63-63l625 0c34 0 62 28 62 63l0 625c0 34-28 62-62 62z m0-687l-625 0 0 625 625 0 0-625z" horiz-adv-x="1000" />
<glyph glyph-name="rain" unicode="&#xe8b3;" d="m679-67q-22 0-37 16t-16 36v313q0 21 16 37t37 16 36-16 15-37v-313q0-21-15-36t-36-16z m-313 0q-21 0-37 16t-15 36v313q0 21 15 37t37 16 36-16 15-37v-313q0-21-15-36t-36-16z m156-104q-21 0-37 16t-15 37v312q0 22 15 37t37 15 37-15 15-37v-312q0-22-15-37t-37-16z m-312 313q-86 0-148 61t-61 148q0 72 44 128t112 73v6q0 129 92 221t221 92q101 0 181-58t113-151q113 9 196-69t82-191q0-88-53-157t-137-93q-21-6-40 5t-25 32 5 39 32 24q51 14 83 55t32 95q0 65-46 110t-111 46q-22 0-42-6l-56-16-9 57q-14 75-71 124t-134 50q-86 0-148-62t-61-147q0-14 5-41l13-63h-74q-40 0-70-30t-30-73 30-75 75-31q21 0 36-15t15-36-15-37-36-15z" horiz-adv-x="1041" />
<glyph glyph-name="glyph-172" unicode="&#xe8b4;" d="m531 788c-259 0-468-210-468-469s209-469 468-469 469 210 469 469-210 469-469 469z m0-876c-224 0-406 183-406 407s182 406 406 406 407-182 407-406-183-407-407-407z m250 438l-500 0c-17 0-31-14-31-31 0-17 14-31 31-31l500 0c18 0 32 14 32 31 0 17-14 31-32 31z m0 188l-500 0c-17 0-31-14-31-32 0-17 14-31 31-31l500 0c18 0 32 14 32 31 0 18-14 32-32 32z m0-375l-500 0c-17 0-31-14-31-32 0-17 14-31 31-31l500 0c18 0 32 14 32 31 0 18-14 32-32 32z" horiz-adv-x="1000" />
<glyph glyph-name="glyph-173" unicode="&#xe8b5;" d="m938 663l-283 0c-34 0-74-18-92-63 0 0-9-57-63-62l-437 0c-35 0-63-27-63-62l0-564c0-34 28-62 63-62l875 0c34 0 62 28 62 62l0 501 0 63 0 124c0 35-28 63-62 63z m0-187l0-63 0-501-875 0 0 563 437 0c2 0 4 0 6 0 59 6 95 47 112 89 16 41 44 36 44 36l276 0 0-124z" horiz-adv-x="1000" />
<glyph glyph-name="glyph-174" unicode="&#xe8b6;" d="m938 663l-220 0c-35 0-74-18-93-63 0 0-8-57-62-62l-438 0c-34 0-62-27-62-62l0-564c0-34 28-62 62-62l813 0c34 0 62 28 62 62l0 501 0 63 0 124c0 35-28 63-62 63z m0-187l0-63 0-501-813 0 0 563 438 0c2 0 3 0 5 0 59 6 95 47 112 89 16 41 45 36 45 36l213 0 0-124z m-250-251l-125 0 0 125c0 17-14 31-32 31s-31-14-31-31l0-125-125 0c-17 0-31-14-31-31 0-17 14-31 31-31l125 0 0-125c0-18 14-32 31-32s32 14 32 32l0 125 125 0c17 0 31 14 31 31 0 17-14 31-31 31z" horiz-adv-x="1000" />
<glyph glyph-name="glyph-175" unicode="&#xe8b7;" d="m750-150c35 0 63 28 63 62l0 876c0 34-28 62-63 62l-437 0c-35 0-63-28-63-62l0-876c0-34 28-62 63-62l437 0z m-250 98c0 19 16 35 35 35s35-16 35-35-15-36-35-36-35 16-35 36z m156 840c18 0 32-14 32-32 0-17-14-31-32-31l-62 0c-17 0-31 14-31 31 0 18 14 32 31 32l62 0z m-156-32c0-17-14-31-31-31s-31 14-31 31c0 18 14 32 31 32s31-14 31-32z m-187-93l437 0 0-625-437 0 0 625z" horiz-adv-x="1000" />
<glyph glyph-name="glyph-176" unicode="&#xe8b8;" d="m813-150c34 0 62 28 62 62l0 876c0 34-28 62-62 62l-625 0c-35 0-63-28-63-62l0-876c0-34 28-62 63-62l625 0z m-313 27c-19 0-35 16-35 35s16 36 35 36 35-16 35-36-16-35-35-35z m-250 848l500 0 0-750-500 0 0 750z" horiz-adv-x="1000" />
</font>
</defs>
</svg>
